<?xml version="1.0" standalone="no"?>
<!DOCTYPE svg PUBLIC "-//W3C//DTD SVG 1.1//EN" "http://www.w3.org/Graphics/SVG/1.1/DTD/svg11.dtd" >
<svg xmlns="http://www.w3.org/2000/svg">
<metadata></metadata>
<defs>
<font id="verizon_apexmedium_italic" horiz-adv-x="1228" >
<font-face units-per-em="2048" ascent="1536" descent="-512" />
<missing-glyph horiz-adv-x="409" />
<glyph unicode="&#xfb01;" horiz-adv-x="1400" d="M96 844l15 127l196 53l27 215q42 324 420 324q104 0 168 -21l-23 -196q-86 22 -168 22q-80 0 -130.5 -32.5t-59.5 -100.5l-27 -211h303l-20 -180h-303l-166 -1356h-207l166 1356h-191zM969 221l96 803h207l-98 -809q-3 -27 12.5 -37t60.5 -10l-22 -195h-39 q-125 0 -179.5 57.5t-37.5 190.5zM1069 1366q8 60 54 101.5t106 41.5t97 -41.5t30 -101.5t-54.5 -101.5t-107.5 -41.5t-96.5 41.5t-28.5 101.5z" />
<glyph unicode="&#xfb02;" horiz-adv-x="1400" d="M96 844l15 127l196 53l27 215q42 324 420 324q104 0 168 -21l-23 -196q-86 22 -168 22q-80 0 -130.5 -32.5t-59.5 -100.5l-27 -211h303l-20 -180h-303l-166 -1356h-207l166 1356h-191zM969 221l159 1315h207l-161 -1321q-3 -27 12.5 -37t60.5 -10l-22 -195h-39 q-125 0 -179.5 57.5t-37.5 190.5z" />
<glyph horiz-adv-x="0" />
<glyph horiz-adv-x="682" />
<glyph unicode=" "  horiz-adv-x="409" />
<glyph unicode="&#x09;" horiz-adv-x="409" />
<glyph unicode="&#xa0;" horiz-adv-x="409" />
<glyph unicode="!" horiz-adv-x="450" d="M33 117q7 60 54.5 101.5t107.5 41.5t96 -41.5t28 -101.5q-6 -60 -52.5 -102t-106.5 -42t-96.5 42t-30.5 102zM150 430l61 1106h278l-208 -1106h-131z" />
<glyph unicode="&#x22;" horiz-adv-x="798" d="M211 1024v512h278l-127 -512h-151zM559 1024v512h279l-127 -512h-152z" />
<glyph unicode="#" horiz-adv-x="1198" d="M49 750l84 202h174l76 146h-158l84 202h176l117 236h211l-119 -236h207l117 236h211l-119 -236h164l-84 -202h-182l-76 -146h166l-84 -202h-183l-120 -240h-209l116 240h-202l-121 -240h-211l121 240h-156zM516 952h205l76 146h-205z" />
<glyph unicode="$" d="M121 260l24 209q64 -28 190.5 -44.5t229.5 -16.5q67 0 118 6t98.5 21.5t75.5 47.5t34 78q4 36 -13.5 59.5t-66 36.5t-78 17.5t-100.5 10.5q-5 1 -8 1q-87 7 -145 15t-114.5 22t-89 34.5t-56.5 50.5t-30.5 72.5t0.5 98.5q22 175 161.5 264.5t381.5 89.5h12l95 203h227 l-111 -217q116 -14 187 -47l-25 -201q-141 57 -411 57q-293 0 -308 -135q-2 -17 1.5 -30.5t13.5 -23.5t20.5 -17.5t31 -13t35 -9t41 -6.5t42 -4t46 -3t44.5 -3q104 -9 172.5 -21t125.5 -34t86 -56.5t41 -85.5t3 -123q-21 -167 -163 -263t-388 -97l-94 -203h-228l105 215 q-145 14 -213 45z" />
<glyph unicode="%" horiz-adv-x="2017" d="M190 1143q25 210 126.5 315t295.5 105q193 0 271 -105.5t53 -314.5q-27 -210 -129 -315t-295 -105q-194 0 -271.5 105t-50.5 315zM281 0l1275 1536h244l-1276 -1536h-243zM393 1143q-15 -122 18 -172.5t124 -50.5q92 0 137.5 50.5t60.5 172.5q13 123 -19.5 174t-123.5 51 q-92 0 -138 -51.5t-59 -173.5zM1147 393q25 210 127 315t295 105q194 0 270 -105t51 -315t-127.5 -315t-296.5 -105q-193 0 -268.5 105t-50.5 315zM1348 393q-15 -122 18 -173.5t123 -51.5q92 0 138 51.5t61 173.5t-18.5 172.5t-125.5 50.5q-90 0 -135.5 -50.5t-60.5 -172.5 z" />
<glyph unicode="&#x26;" horiz-adv-x="1638" d="M133 621q24 199 121.5 345t251.5 222t348 76q24 0 70 -4q50 145 65 276h215q-17 -137 -58 -272.5t-111.5 -270.5t-163 -249.5t-221 -210t-277.5 -152.5q37 -101 126.5 -154t221.5 -53q387 0 426 318q6 47 -17 104h-163l24 207h545l-25 -207h-145q6 -52 0 -104 q-29 -235 -203.5 -377t-466.5 -142q-294 0 -446.5 172.5t-116.5 475.5zM348 588q315 130 494 475h-13q-198 0 -324 -114t-153 -328z" />
<glyph unicode="'" horiz-adv-x="450" d="M211 1024v512h278l-127 -512h-151z" />
<glyph unicode="(" horiz-adv-x="704" d="M128 332.5q1 143.5 19 292.5q22 184 68 357.5t102 304.5t109 226t104 158h224q-51 -64 -104.5 -158.5t-109.5 -225.5t-102.5 -304.5t-68.5 -357.5q-42 -349 4 -625t125 -422h-224q-27 50 -51.5 118t-47 168.5t-35.5 212.5t-12 255.5z" />
<glyph unicode=")" horiz-adv-x="704" d="M-23 -422q51 63 105.5 158t111 226t103 305t68.5 358q18 149 18.5 292.5t-12.5 255.5t-36.5 212t-48.5 168t-53 118h224q35 -63 65 -155.5t55 -231t27.5 -299t-18.5 -360.5q-22 -184 -68 -358t-102 -304.5t-110 -226t-105 -158.5h-224z" />
<glyph unicode="*" horiz-adv-x="860" d="M111 1159l100 223l233 -118l-6 272h238l-72 -272l266 120l35 -225l-268 -47l166 -201l-209 -131l-100 238l-158 -244l-170 141l207 197z" />
<glyph unicode="+" horiz-adv-x="1064" d="M133 598l25 201h309l37 309h201l-37 -309h309l-25 -201h-309l-37 -309h-200l36 309h-309z" />
<glyph unicode="," horiz-adv-x="450" d="M29 -233l73 219q-37 17 -55 52t-14 79q7 60 54.5 101.5t107.5 41.5t96 -41.5t28 -101.5q-3 -40 -24 -70l-162 -280h-104z" />
<glyph unicode="-" horiz-adv-x="757" d="M113 598l24 201h553l-24 -201h-553z" />
<glyph unicode="." horiz-adv-x="450" d="M33 117q7 60 54.5 101.5t107.5 41.5t96 -41.5t28 -101.5q-6 -60 -52.5 -102t-106.5 -42t-96.5 42t-30.5 102z" />
<glyph unicode="/" horiz-adv-x="937" d="M-113 -422l973 2093h219l-975 -2093h-217z" />
<glyph unicode="0" d="M126 400.5q0 91.5 7 170.5t21 197q15 119 27 197.5t34 170t49.5 149.5t70.5 116t98.5 90t133 52t174.5 20q69 0 125 -8.5t99 -28t76 -43.5t55.5 -61.5t37.5 -74.5t21.5 -91t9 -103t-1.5 -117.5t-10 -127.5t-16 -140q-15 -119 -27.5 -197.5t-34.5 -170t-49.5 -149.5 t-70.5 -116t-98.5 -90t-133 -52t-174.5 -20t-169.5 20t-120.5 52t-77 90t-42.5 116t-13.5 149.5zM345 496q-4 -74 2 -114t19.5 -87.5t39.5 -71t67.5 -39.5t97.5 -16q44 0 81 9.5t66 24.5t53 43.5t41.5 55.5t32.5 72t25 81.5t20 96t15.5 103t14.5 114.5q13 109 18.5 169.5 t8 141.5t-10 124t-37 86t-69.5 61t-111 18t-115.5 -18t-84.5 -61t-58 -86.5t-40.5 -124t-27 -141.5t-22.5 -169q-11 -94 -16.5 -146t-9.5 -126z" />
<glyph unicode="1" d="M154 0l20 180h285l143 1170l-317 -13l12 105l442 121h107l-168 -1383h285l-21 -180h-788z" />
<glyph unicode="2" d="M41 0l16 143l787 781q91 91 104 213q9 48 0 89.5t-33 72.5t-79.5 49t-139.5 18q-103 0 -193.5 -18t-213.5 -68l24 207q180 76 404 76q79 0 144.5 -11t111.5 -31t81 -46t56.5 -59t34.5 -66.5t17.5 -72t4 -71.5t-5.5 -69q-22 -191 -237 -396l-574 -540h717l-23 -201h-1003z " />
<glyph unicode="3" d="M68 41l24 197q73 -28 189 -49t235 -21q86 0 152 16.5t105 42t65 64t37 74t16 79.5q15 127 -44.5 188.5t-211.5 61.5h-318l25 201h317q66 0 118 21.5t82.5 57.5t47 75t21.5 81q5 30 2.5 59.5t-9.5 56t-27.5 49t-51 39t-79.5 25.5t-114 9q-99 0 -226 -19.5t-202 -45.5 l25 202q64 25 192 41.5t224 16.5q92 0 166.5 -12t126.5 -34t90.5 -52.5t59.5 -68t33.5 -80.5t11.5 -90t-5 -96q-11 -90 -62.5 -183t-124.5 -138q90 -42 127.5 -144.5t22.5 -220.5q-10 -79 -31.5 -143.5t-67.5 -127.5t-113 -105.5t-172 -68.5t-241 -26q-134 0 -246 18.5 t-169 49.5z" />
<glyph unicode="4" d="M98 414l17 127l807 1022h143l-115 -955h201l-25 -194h-200l-49 -414h-205l49 414h-623zM383 608h362l66 541z" />
<glyph unicode="5" d="M59 41l25 203q50 -35 169 -55.5t236 -20.5q58 0 107 6.5t103.5 27t94 53.5t69.5 91t40 135q9 71 -6.5 119.5t-39.5 73.5t-79.5 37t-93 14t-114.5 2h-9h-373l99 809h930l-25 -195h-725l-51 -419q108 6 229 6q95 0 163 -8t137 -35.5t108.5 -74.5t58 -130.5t4.5 -198.5 q-11 -93 -38.5 -168.5t-64 -127.5t-87.5 -91t-102.5 -61.5t-115.5 -36.5t-120 -18.5t-123 -4.5q-131 0 -244 18.5t-162 49.5z" />
<glyph unicode="6" d="M130.5 425q0.5 64 5.5 125t14 138q14 112 31.5 204t45 184t62.5 163t85.5 134t112 103.5t143.5 63.5t179 23q224 0 367 -60l-25 -203q-155 64 -365 64q-78 0 -141 -28t-106 -73.5t-77 -114.5t-55 -139.5t-38 -160.5q125 121 317 121q88 0 157.5 -17t114.5 -45t76 -69.5 t45.5 -83t20 -94.5t4 -95.5t-7.5 -93.5q-65 -498 -531 -498q-73 0 -132.5 11t-104.5 30t-78.5 49.5t-56.5 66t-36.5 84.5t-20 98t-6 113zM342 471q-40 -303 246 -303q65 0 116.5 21t83 52t53.5 74t31.5 79.5t14.5 76.5q3 30 4 53.5t-1 56.5t-9.5 58t-23.5 51.5t-40.5 44 t-63.5 28.5t-89 11q-69 0 -124.5 -20t-89.5 -50.5t-58 -72.5t-34.5 -80t-15.5 -80z" />
<glyph unicode="7" d="M164 0l842 1341h-803l24 195h1024l-16 -139l-836 -1397h-235z" />
<glyph unicode="8" d="M84 434q15 113 77 219.5t161 157.5q-60 52 -88 140.5t-17 174.5q8 70 30.5 132t64.5 119t100 97.5t142.5 64.5t186.5 24q86 0 155.5 -16.5t116.5 -46.5t81 -71t49.5 -89.5t22 -103t-2.5 -110.5q-11 -86 -60.5 -174t-121.5 -141q86 -51 122 -158t21 -219 q-11 -96 -48.5 -176t-104.5 -145.5t-175 -102.5t-247 -37t-238 37t-150.5 102.5t-69.5 145.5t-7 176zM301 361q2 -37 20.5 -72t47.5 -62t81 -43t121 -16q85 0 150 24t102.5 65t57.5 85t26 92q15 126 -53.5 195t-216.5 69t-234.5 -69t-101.5 -195q-2 -36 0 -73zM434 1126 q-4 -32 0.5 -64.5t20.5 -63.5t42 -54.5t68.5 -38t96.5 -14.5q66 0 120 21.5t87 57t52 75.5t25 81q2 33 1.5 67t-15.5 65.5t-38.5 56t-68.5 39t-106 14.5t-109.5 -15t-79 -38.5t-51.5 -56.5t-31 -64.5t-14 -67.5z" />
<glyph unicode="9" d="M115 33l26 203q155 -64 365 -64q78 0 141 28t106 73.5t77 114.5t54.5 139.5t37.5 160.5q-125 -121 -318 -121q-88 0 -157.5 17t-114 45t-75 69.5t-45 83t-20 94.5t-3.5 95.5t8 93.5q9 71 25.5 132.5t55 131.5t93.5 119t146 82t208 33q93 0 164.5 -18t120.5 -48.5 t80.5 -81t47.5 -106t20 -133.5t-0.5 -153t-16.5 -175q-13 -112 -30.5 -204t-45 -184t-63 -163.5t-86 -133.5t-112.5 -103t-144 -64t-179 -23q-223 0 -366 60zM400.5 988.5q-0.5 -33.5 9 -78.5t32 -75t70.5 -51.5t117 -21.5t124.5 20t89 50t57 72.5t34.5 80.5t16 80 q36 303 -248 303q-65 0 -116.5 -21t-82 -52t-52.5 -74.5t-31 -79.5t-14 -76q-5 -43 -5.5 -76.5z" />
<glyph unicode=":" horiz-adv-x="450" d="M33 117q7 60 54.5 101.5t107.5 41.5t96 -41.5t28 -101.5q-6 -60 -52.5 -102t-106.5 -42t-96.5 42t-30.5 102zM113 768q7 60 54 101.5t107 41.5t96.5 -41.5t28.5 -101.5t-53.5 -101.5t-105.5 -41.5t-97 41.5t-30 101.5z" />
<glyph unicode=";" horiz-adv-x="450" d="M29 -233l73 219q-37 17 -55 52t-14 79q7 60 54.5 101.5t107.5 41.5t96 -41.5t28 -101.5q-3 -40 -24 -70l-162 -280h-104zM113 768q7 60 54 101.5t107 41.5t96.5 -41.5t28.5 -101.5t-53.5 -101.5t-105.5 -41.5t-97 41.5t-30 101.5z" />
<glyph unicode="&#x3c;" horiz-adv-x="747" d="M104 614l21 168l598 369l-27 -211l-346 -242l289 -241l-27 -211z" />
<glyph unicode="=" horiz-adv-x="1064" d="M113 428l24 203h819l-24 -203h-819zM154 766l24 203h819l-24 -203h-819z" />
<glyph unicode="&#x3e;" horiz-adv-x="747" d="M70 246l26 211l346 241l-288 242l26 211l508 -369l-20 -168z" />
<glyph unicode="?" horiz-adv-x="1024" d="M168 1303l25 200q60 23 162.5 41.5t174.5 18.5q90 0 162.5 -12.5t121.5 -34.5t85.5 -53t55 -68t29.5 -79t9 -86.5t-6 -90.5q-7 -56 -21.5 -102.5t-34 -82t-51 -67.5t-61 -54.5t-75.5 -46t-84.5 -40t-96.5 -39.5q-36 -14 -61 -33.5t-40 -40t-25.5 -56t-15.5 -64.5t-11 -83 h-150q-5 130 0 166q11 98 71.5 171t194.5 122q106 40 141 62q94 60 109 186q9 51 0.5 92.5t-34 71.5t-83.5 46.5t-149 16.5q-161 0 -342 -61zM176 117q7 60 54.5 101.5t107.5 41.5t96.5 -41.5t28.5 -101.5q-6 -60 -53 -102t-107 -42t-96.5 42t-30.5 102z" />
<glyph unicode="@" horiz-adv-x="2072" d="M95 286q3 104 18 226t37.5 225.5t63 214t94.5 197.5t135.5 166.5t183.5 132.5t241.5 84t305.5 31q167 0 297.5 -23.5t220 -63.5t151.5 -103t95.5 -133t47.5 -163t12 -182.5t-16 -202.5q-16 -131 -43.5 -233t-75.5 -190.5t-115 -146t-163.5 -90t-220.5 -32.5h-127l-14 57 q-161 -84 -291 -84q-127 0 -211 39t-123 110t-51 170t6 220q15 127 48 221t91.5 168t151 112t219.5 38q128 0 270 -84l27 57h137l-100 -829q91 7 156.5 42t107 101.5t65.5 150.5t39 203q8 69 11.5 123t1.5 114t-12.5 106t-31.5 93t-53.5 81t-81 64.5t-112 49.5t-148.5 30 t-188 11q-132 0 -241.5 -25.5t-188.5 -68.5t-142 -108.5t-103.5 -135.5t-70.5 -160.5t-46.5 -172t-28.5 -181.5t-15.5 -181.5t4.5 -172t31.5 -160.5t70 -135.5t115 -108.5t171.5 -68.5t235 -25.5q309 0 537 107l-27 -226q-231 -80 -534 -80q-166 0 -298 31t-221.5 84 t-151.5 132.5t-95.5 167t-46.5 197t-10 213.5zM757 380.5q3 -62.5 19 -109.5t61 -75t117 -28q135 0 238 49l74 590q-96 49 -228 49q-72 0 -123 -26.5t-80.5 -78t-44 -106.5t-24.5 -133q-12 -69 -9 -131.5z" />
<glyph unicode="A" horiz-adv-x="1402" d="M20 0l734 1563h149l357 -1563h-236l-82 408h-508l-178 -408h-236zM522 606h381l-117 602z" />
<glyph unicode="B" horiz-adv-x="1329" d="M113 0l186 1536h502q134 0 228 -33t142 -92q49 -59 65 -133q10 -44 9 -94q0 -34 -4 -70q-11 -88 -59.5 -169.5t-126.5 -135.5q91 -49 129 -147q27 -71 28 -153q0 -31 -4 -63q-12 -97 -49.5 -175t-104.5 -140.5t-175.5 -96.5t-251.5 -34h-514zM354 205h305q87 0 149 20 t96 56.5t50.5 75.5t22.5 89q3 27 3 51q0 91 -46 137q-58 58 -211 58h-309zM438 897h310q67 0 117.5 18.5t79.5 51t44 68.5t21 79q2 22 2 41q0 21 -2 39q-6 34 -27.5 68t-71.5 51.5t-127 17.5h-292z" />
<glyph unicode="C" horiz-adv-x="1318" d="M162 558q-1 18 -1 36q0 84 13 174q17 136 49.5 250.5t89.5 217t135 173.5t189.5 112.5t247.5 41.5q242 0 409 -76l-26 -219q-116 51 -208 70.5t-200 19.5q-106 0 -188.5 -44.5t-137 -126.5t-88 -185.5t-49.5 -233.5q-11 -96 -10 -181q-1 -3 -1 -7q0 -88 21.5 -162.5 t59 -127.5t101.5 -82.5t149 -29.5q108 0 204 19.5t224 70.5l-27 -219q-182 -76 -426 -76q-114 0 -204 28.5t-149.5 80.5t-100.5 125t-56.5 161t-19.5 190z" />
<glyph unicode="D" horiz-adv-x="1406" d="M113 0l186 1536h436q125 0 221.5 -26.5t161 -75.5t107.5 -118.5t61 -154.5q16 -85 20 -185q1 -18 1 -36q0 -83 -13 -172q-17 -137 -49 -248t-90 -210t-139 -166t-199.5 -105.5t-267.5 -38.5h-436zM352 205h230q116 0 204 41t144 118.5t89 176t48 227.5q10 91 10 170v14 q-1 86 -23 156t-62.5 119.5t-109.5 76.5t-163 27h-230z" />
<glyph unicode="E" horiz-adv-x="1241" d="M113 0l186 1536h924l-25 -205h-709l-53 -434h641l-24 -205h-641l-60 -487h709l-25 -205h-923z" />
<glyph unicode="F" horiz-adv-x="1204" d="M113 0l186 1536h907l-24 -205h-690l-54 -434h621l-25 -205h-620l-84 -692h-217z" />
<glyph unicode="G" horiz-adv-x="1417" d="M162 558q-1 18 -1 36q0 85 13 174q17 136 49.5 250.5t89.5 217t135 173.5t189.5 112.5t247.5 41.5q260 0 438 -93l-27 -217q-133 58 -229 81.5t-207 23.5q-86 0 -157 -30t-122 -82t-89 -127.5t-61 -161.5t-36 -189q-11 -96 -11 -181v-7q1 -89 22.5 -163t59 -127 t101.5 -82.5t150 -29.5q165 0 274 31l53 430h-301l25 205h516l-94 -776q-224 -95 -498 -95q-114 0 -204 28.5t-149.5 80.5t-100.5 125t-57 161t-19 190z" />
<glyph unicode="H" horiz-adv-x="1421" d="M113 0l186 1536h215l-78 -639h643l78 639h215l-186 -1536h-215l84 692h-643l-84 -692h-215z" />
<glyph unicode="I" horiz-adv-x="653" d="M158 0l186 1536h215l-186 -1536h-215z" />
<glyph unicode="J" horiz-adv-x="876" d="M29 -2l24 203q103 -25 174 -25q176 0 189 125l151 1235h215l-149 -1231q-42 -332 -430 -332q-71 0 -174 25z" />
<glyph unicode="K" horiz-adv-x="1327" d="M113 0l186 1536h211l-84 -690l627 690h282l-686 -705l555 -831h-282l-433 668l-98 -101l-67 -567h-211z" />
<glyph unicode="L" horiz-adv-x="1163" d="M113 0l186 1536h215l-162 -1331h672l-25 -205h-886z" />
<glyph unicode="M" horiz-adv-x="1769" d="M113 0l186 1536h260l322 -1053l579 1053h260l-186 -1536h-211l156 1194l-549 -989h-164l-307 989l-135 -1194h-211z" />
<glyph unicode="N" horiz-adv-x="1437" d="M113 0l186 1536h170l580 -1114l131 1114h209l-187 -1536h-170l-579 1114l-131 -1114h-209z" />
<glyph unicode="O" horiz-adv-x="1454" d="M156 506v14q0 60 4 115q4 61 14 133q12 94 26.5 171t40 161.5t59.5 149.5t86 126t117 100.5t154.5 63t196.5 23.5q84 0 154 -14.5t121.5 -39.5t91 -63.5t65.5 -82t42 -99.5t23 -112q7 -54 7 -122q0 -7 1 -14q-1 -60 -5 -115q-4 -61 -13 -133q-12 -95 -26 -171t-40 -161 t-59.5 -150t-85 -126t-116.5 -100.5t-154.5 -63t-197.5 -23.5q-84 0 -153.5 14.5t-121 39.5t-91 63.5t-65.5 82t-42.5 99.5t-24.5 111t-8 123zM380 513q2 -63 13 -110.5t33.5 -91.5t56.5 -72t85.5 -44.5t117.5 -16.5q92 0 163 32t115.5 83t77 131.5t49 159t29.5 184.5 q9 74 13 133q3 39 3 80q0 21 -1 42q-2 63 -13 110.5t-33.5 91.5t-56.5 72t-85.5 44.5t-117.5 16.5q-92 0 -163 -32t-115.5 -83t-77 -131.5t-49 -159t-29.5 -184.5q-9 -74 -13 -133q-3 -39 -3 -80q0 -21 1 -42z" />
<glyph unicode="P" horiz-adv-x="1282" d="M113 0l186 1536h487q114 0 202 -26t142.5 -69.5t86.5 -104.5q33 -62 41 -130q4 -33 4 -68q0 -37 -5 -77q-10 -78 -35 -146t-72 -129.5t-112 -105.5t-159.5 -70t-208.5 -26h-271l-69 -584h-217zM424 788h276q288 0 324 273q3 26 3 50q0 220 -259 220h-276z" />
<glyph unicode="Q" horiz-adv-x="1454" d="M156 480v36q0 54 4 104q4 67 14 148q12 94 26.5 171t40 161.5t59.5 149.5t86 126t117 100.5t154.5 63t196.5 23.5q84 0 154 -14.5t121.5 -39.5t91 -63.5t65.5 -82t42 -99.5t23 -111.5t7 -122.5q1 -7 1 -14q0 -60 -5 -115q-4 -61 -13 -133q-12 -97 -26.5 -175.5t-41 -164 t-62.5 -151.5t-90.5 -125t-123.5 -97v-2l449 -82l-29 -225l-938 252q-71 19 -125.5 53.5t-90.5 78t-59.5 101.5t-34.5 116.5t-13 132.5zM380 513q2 -63 13 -110.5t33.5 -91.5t56.5 -72t85.5 -44.5t117.5 -16.5q92 0 163 32t115.5 83t77 131.5t49 159t29.5 184.5q9 74 13 133 q3 39 3 80q0 21 -1 42q-2 63 -13 110.5t-33.5 91.5t-56.5 72t-85.5 44.5t-117.5 16.5q-92 0 -163 -32t-115.5 -83t-77 -131.5t-49 -159t-29.5 -184.5q-9 -74 -13 -133q-3 -39 -3 -80q0 -21 1 -42z" />
<glyph unicode="R" horiz-adv-x="1374" d="M113 0l186 1536h496q145 0 243.5 -30.5t149.5 -90.5t67 -139q9 -42 8 -92q0 -44 -6 -94q-20 -160 -90 -262.5t-213 -151.5q41 -102 137 -335t140 -341h-266l-236 639h-323l-78 -639h-215zM430 844h309q81 0 136.5 18t86 54.5t44 76t20.5 97.5q5 30 5 58q0 19 -2 36 q-6 44 -26 76.5t-71.5 51.5t-132.5 19h-310z" />
<glyph unicode="S" horiz-adv-x="1292" d="M76 66l26 210q10 -4 47 -19.5t47.5 -19.5t43 -15.5t49 -15.5t49 -11t60 -9.5t65 -5t78.5 -2.5q356 0 389 281q3 26 3 48q0 31 -6 54q-11 40 -47 66t-87 39.5t-138 25.5h2q-273 34 -375 128q-81 75 -82 218q0 35 5 74q8 62 26.5 118.5t61.5 119t105 108t162.5 75.5 t227.5 30q242 0 410 -84l-24 -217q-114 56 -206.5 76t-203.5 20q-93 0 -159.5 -19.5t-103 -56t-54 -77.5t-23.5 -95q-2 -21 -2 -39q0 -35 8 -59q14 -38 61 -60.5t90.5 -32t137.5 -22.5q120 -15 203 -42.5t142.5 -77t81.5 -128.5q14 -49 14 -110q0 -38 -5 -80 q-6 -49 -19.5 -95.5t-38 -95.5t-59 -91.5t-85 -80.5t-112.5 -65t-146 -42.5t-181 -15.5q-104 0 -232 27.5t-206 65.5z" />
<glyph unicode="T" horiz-adv-x="1198" d="M186 1331l25 205h1026l-25 -205h-405l-162 -1331h-215l162 1331h-406z" />
<glyph unicode="U" horiz-adv-x="1437" d="M162 489l127 1047h215l-125 -1020q-4 -34 -4 -65q1 -49 11 -89q18 -66 48 -100t78.5 -53.5t85 -24t80.5 -4.5q341 0 381 336l125 1020h215l-127 -1047q-11 -92 -42 -168.5t-71.5 -129t-94 -92.5t-106 -63.5t-110.5 -38t-104 -19.5t-91 -5t-89.5 5t-99 19.5t-101 38 t-90 63.5t-71.5 92.5t-40 128.5q-6 39 -5 83q0 41 5 86z" />
<glyph unicode="V" horiz-adv-x="1402" d="M207 1536h235l238 -1202l530 1202h236l-735 -1563h-150z" />
<glyph unicode="W" horiz-adv-x="1859" d="M207 1536h231l74 -1165l438 1165h207l156 -1167l358 1167h232l-531 -1563h-198l-162 1215l-459 -1215h-197z" />
<glyph unicode="X" horiz-adv-x="1417" d="M10 0l602 778l-405 758h262l291 -600l438 600h262l-590 -758l414 -778h-268l-295 614l-442 -614h-269z" />
<glyph unicode="Y" horiz-adv-x="1486" d="M207 1536h258l315 -717l492 717h258l-666 -903l-76 -633h-213l76 633z" />
<glyph unicode="Z" horiz-adv-x="1314" d="M41 0l16 139l936 1192h-751l24 205h1043l-17 -139l-938 -1192h822l-25 -205h-1110z" />
<glyph unicode="[" horiz-adv-x="581" d="M39 -422l256 2093h346l-25 -205h-131l-204 -1683h131l-27 -205h-346z" />
<glyph unicode="\" horiz-adv-x="937" d="M141 1671h219l463 -2093h-219z" />
<glyph unicode="]" horiz-adv-x="581" d="M-33 -422l27 205h131l205 1683h-131l24 205h346l-256 -2093h-346z" />
<glyph unicode="^" horiz-adv-x="1105" d="M158 1024l432 512h217l305 -512h-135l-297 362l-387 -362h-135z" />
<glyph unicode="_" horiz-adv-x="655" d="M-123 -512l17 135h653l-17 -135h-653z" />
<glyph unicode="`" horiz-adv-x="1105" d="M344 1536h248l121 -358h-115z" />
<glyph unicode="a" horiz-adv-x="1148" d="M117 292q-5 40 -5 83q0 65 11 137q15 127 48 221t91.5 168t151 112t219.5 38q128 0 270 -84l27 57h137l-123 -1024h-137l-14 57q-161 -84 -291 -84q-127 0 -211 39t-123 110t-51 170zM327 380q3 -62 19 -109t61 -75t117 -28q135 0 238 49l74 590q-96 49 -228 49 q-72 0 -123 -26.5t-80.5 -78t-44 -106.5t-24.5 -133q-10 -55 -10 -106q0 -14 1 -26z" />
<glyph unicode="b" horiz-adv-x="1148" d="M82 0l186 1536h207l-65 -541q130 56 237 56q102 0 176 -25t118 -71.5t68 -112.5q23 -68 25 -150q0 -11 1 -21q0 -73 -9 -159q-15 -127 -48 -221t-91.5 -168t-151 -112t-219.5 -38q-128 0 -270 84l-27 -57h-137zM313 217q96 -49 226 -49q58 0 103 19t73.5 48.5t49 76.5 t30.5 93t18 107q9 55 9 105q0 13 -1 27q-3 62 -19 109.5t-61 75t-118 27.5q-72 0 -158 -20q-50 -13 -78 -27z" />
<glyph unicode="c" horiz-adv-x="1009" d="M116 332q0 16 -1 33q0 68 8 147q15 126 50 221.5t95.5 168.5t155 111t221.5 38q193 0 313 -60l-22 -194q-162 59 -315 59q-73 0 -125.5 -26.5t-84 -77t-49 -107.5t-26.5 -133q-8 -50 -8 -96q0 -18 2 -36q4 -62 22.5 -109.5t65 -75t119.5 -27.5q154 0 329 59l-24 -194 q-133 -60 -328 -60q-102 0 -177.5 25t-121 71.5t-71.5 113.5t-28 149z" />
<glyph unicode="d" horiz-adv-x="1148" d="M117 292q-5 40 -5 83q0 65 11 137q15 127 48 221.5t91.5 168.5t151 111.5t219.5 37.5q107 0 225 -56l66 541h206l-186 -1536h-137l-14 57q-161 -84 -291 -84q-127 0 -211 39t-123 110t-51 170zM327 380q3 -62 19 -109t61 -75t117 -28q135 0 238 49l74 592q-33 16 -74 27 q-78 20 -154 20q-58 0 -103 -18.5t-73 -48t-48 -76.5t-30 -93t-18 -108q-10 -55 -10 -106q0 -14 1 -26z" />
<glyph unicode="e" horiz-adv-x="1105" d="M116 332q0 16 -1 33q0 68 8 147q15 126 50 221.5t95.5 168.5t155 111t221.5 38q203 0 295 -92q75 -75 76 -187q0 -24 -4 -51q-30 -307 -426 -307h-258q0 -116 47 -181t162 -65q99 0 181 16.5t181 57.5l-25 -199q-163 -70 -360 -70q-102 0 -177.5 25t-121 71.5 t-71.5 113.5t-28 149zM348 596h270q167 0 181 123q2 12 2 22q1 46 -31 77q-38 38 -149 38q-64 0 -112 -19t-79 -56.5t-50 -81t-32 -103.5z" />
<glyph unicode="f" horiz-adv-x="837" d="M96 844l15 127l196 53l27 215q42 324 420 324q104 0 168 -21l-23 -196q-86 22 -168 22q-80 0 -130.5 -32.5t-59.5 -100.5l-27 -211h303l-20 -180h-303l-166 -1356h-207l166 1356h-191z" />
<glyph unicode="g" horiz-adv-x="1157" d="M49 -461l27 223q80 -42 190 -74q100 -28 190 -28h17q46 1 82.5 11t61 23.5t44 37t30 43t18.5 50.5t11 51t7 52l12 103q-133 -58 -237 -58q-127 0 -211 39t-123 110t-51 170q-5 40 -5 83q0 64 11 137q15 127 48 221t91.5 168t151 112t219.5 38q128 0 270 -84l27 57h137 l-133 -1096q-7 -60 -16.5 -107.5t-27 -97.5t-41.5 -87.5t-60.5 -71.5t-83.5 -56t-112 -34.5t-144 -12.5q-240 0 -400 78zM327 380q3 -62 19 -109t61 -75t117 -28q135 0 238 49l74 590q-96 49 -228 49q-72 0 -123 -26.5t-80.5 -78t-44 -106.5t-24.5 -133q-10 -55 -10 -106 q0 -13 1 -26z" />
<glyph unicode="h" horiz-adv-x="1097" d="M82 0l186 1536h207l-65 -541q118 56 243 56q185 0 271 -86q69 -69 69 -184q0 -28 -4 -60l-86 -721h-211l88 725q1 10 1 19q0 54 -35 80q-41 32 -117 32q-139 0 -242 -49l-98 -807h-207z" />
<glyph unicode="i" horiz-adv-x="563" d="M131 221l96 803h207l-98 -809q-3 -27 13 -37t61 -10l-23 -195h-39q-126 -1 -180 57q-42 44 -41 132q0 27 4 59zM231 1366q8 60 54 101.5t106 41.5q60 1 97 -41q31 -35 32 -83q0 -9 -2 -19q-7 -60 -54.5 -101.5t-107.5 -41.5q-60 -1 -96 41q-30 34 -30 81q0 10 1 21z" />
<glyph unicode="j" horiz-adv-x="540" d="M-203 -532l23 188q47 6 88.5 18t80.5 32.5t64.5 54.5t30.5 77l143 1186h207l-145 -1204q-10 -79 -58.5 -145.5t-119.5 -109t-152 -67.5t-162 -30zM231 1366q8 60 54 101.5t106 41.5t97 -41q31 -35 31 -83q0 -9 -1 -19q-7 -60 -54.5 -101.5t-107.5 -41.5t-96 41 q-30 35 -30 81q0 10 1 21z" />
<glyph unicode="k" horiz-adv-x="1081" d="M82 0l186 1536h207l-108 -897l403 385h303l-500 -430l418 -594h-286l-287 461l-82 -72l-47 -389h-207z" />
<glyph unicode="l" horiz-adv-x="563" d="M131 221l160 1315h207l-162 -1321q-3 -27 13 -37t61 -10l-23 -195h-39q-126 -1 -180 57q-42 44 -41 132q0 27 4 59z" />
<glyph unicode="m" horiz-adv-x="1675" d="M82 0l123 1024h141l14 -57q67 39 144.5 61.5t142.5 22.5q199 0 279 -103q13 8 28 19q67 39 144.5 61.5t142.5 22.5q187 0 266 -86q64 -69 64 -185q0 -28 -4 -59l-86 -721h-211l86 707q2 15 2 29q0 120 -141 120q-129 0 -232 -49l-8 -4q1 -10 1 -22q0 -27 -5 -60l-86 -721 h-211l86 707q2 15 2 29q0 120 -141 120q-129 0 -232 -49l-98 -807h-211z" />
<glyph unicode="n" horiz-adv-x="1101" d="M82 0l123 1024h141l14 -57q137 84 297 84q185 0 271 -86q69 -69 69 -184q0 -28 -4 -60l-86 -721h-211l88 725q1 10 1 19q0 54 -35 80q-41 32 -117 32q-139 0 -242 -49l-98 -807h-211z" />
<glyph unicode="o" horiz-adv-x="1134" d="M112 334q1 82 11 178q13 102 32.5 179t57.5 147.5t92.5 115.5t137 71t190.5 26q109 0 186 -25.5t119.5 -72.5t64.5 -113q21 -62 21 -139q0 -5 -1 -11q-2 -82 -11 -178q-13 -103 -32.5 -179.5t-56.5 -147.5t-91.5 -115t-137.5 -70.5t-192 -26.5q-108 0 -184.5 25.5 t-119.5 72.5t-65 113q-21 64 -21 142v8zM321 359q0 -39 7 -65t21 -51.5t36.5 -40.5t57.5 -24.5t81 -9.5q63 0 109.5 18t74.5 46t48 76t29 92.5t18 111.5q10 63 10 118v18q-2 63 -17.5 109t-62.5 72.5t-125 26.5q-54 0 -95 -11t-69 -35.5t-46.5 -51.5t-31.5 -71t-20 -81 t-14 -94q-6 -48 -9 -81q-3 -28 -3 -61q1 -5 1 -11z" />
<glyph unicode="p" horiz-adv-x="1148" d="M18 -512l187 1536h137l14 -57q161 84 291 84q127 0 211 -39t123 -110t51 -170q5 -40 5 -83q0 -64 -11 -137q-15 -127 -48 -221.5t-91.5 -168.5t-151 -111.5t-219.5 -37.5q-107 0 -225 56l-66 -541h-207zM313 215q33 -16 74 -27q78 -20 152 -20q58 0 103 18.5t73.5 48.5 t49 76.5t30.5 92.5t18 108q9 53 9 103v29q-4 62 -20 109t-61.5 75t-117.5 28q-133 0 -236 -49z" />
<glyph unicode="q" horiz-adv-x="1148" d="M114 332v21q0 74 9 159q15 127 48 221t91.5 168t151 112t219.5 38q128 0 270 -84l27 57h137l-186 -1536h-207l65 541q-130 -56 -237 -56q-102 0 -176 25t-118 71.5t-68 113t-26 149.5zM327 380q3 -63 19 -110t61 -74.5t117 -27.5q74 0 160 20q50 13 78 27l74 592 q-96 49 -228 49q-72 0 -123 -26.5t-80.5 -78t-44 -106.5t-24.5 -133q-10 -56 -10 -107q0 -13 1 -25z" />
<glyph unicode="r" horiz-adv-x="825" d="M82 0l123 1024h141l14 -57q144 84 297 84q77 0 150 -17l-25 -209q-84 31 -149 31q-131 0 -242 -49l-98 -807h-211z" />
<glyph unicode="s" horiz-adv-x="995" d="M72 31l24 198q164 -61 318 -61q115 0 169.5 39.5t61.5 99.5q1 10 1 19q0 43 -28 68q-34 30 -143 40q-88 8 -151 26t-99 44t-56.5 60.5t-22.5 74.5q-1 15 -1 32q0 26 2 54q6 48 23.5 93t51.5 88t82 74.5t119 51t157 19.5q177 0 305 -60l-23 -194q-172 59 -309 59 q-110 0 -154 -34t-51 -97q-4 -32 7 -51t50.5 -32.5t114.5 -20.5q110 -11 180 -35t105 -65t45 -91q5 -26 4 -57q0 -30 -4 -64q-6 -51 -24.5 -98t-55 -91t-87.5 -76t-126.5 -51.5t-167.5 -19.5q-73 0 -167 17.5t-150 40.5z" />
<glyph unicode="t" horiz-adv-x="837" d="M96 844l15 127l196 53l33 258l213 57l-39 -315h303l-20 -180h-303l-70 -565l-2 -20q0 -45 29 -66q34 -25 106 -25q69 0 115 8l-23 -190q-57 -13 -131 -13q-65 0 -122 17t-101.5 50.5t-66.5 89.5q-16 40 -16 89q0 20 3 41l72 584h-191z" />
<glyph unicode="u" horiz-adv-x="1101" d="M109 303l86 721h211l-89 -725q-1 -10 -1 -19q0 -52 34 -80q40 -32 117 -32q141 0 244 49l98 807h211l-123 -1024h-141l-15 57q-137 -84 -297 -84q-186 0 -271 86q-68 69 -68 184q0 29 4 60z" />
<glyph unicode="v" horiz-adv-x="1050" d="M113 1024h229l156 -739l331 739h232l-529 -1051h-145z" />
<glyph unicode="w" horiz-adv-x="1456" d="M113 1024h221l72 -694l284 694h199l121 -692l237 692h219l-415 -1051h-162l-131 783l-322 -783h-162z" />
<glyph unicode="x" horiz-adv-x="1064" d="M-31 0l443 526l-299 498h249l189 -356l272 356h252l-418 -498l316 -526h-254l-203 377l-295 -377h-252z" />
<glyph unicode="y" horiz-adv-x="1101" d="M14 -465l27 223q68 -41 177 -71q99 -27 190 -27h18q46 1 82.5 11t60.5 23.5t43 37.5t29 42.5t18 51t10.5 50.5t6.5 52l12 101q-118 -56 -244 -56q-186 0 -271 86q-68 69 -68 184q0 29 4 60l86 721h211l-89 -725q-1 -10 -1 -19q0 -54 34 -80q41 -32 117 -32q141 0 244 49 l98 807h211l-133 -1096q-7 -60 -16.5 -107.5t-27.5 -97.5t-42 -87.5t-60.5 -71.5t-83.5 -56t-112 -34.5t-144 -12.5q-254 0 -387 74z" />
<glyph unicode="z" horiz-adv-x="962" d="M10 0l17 137l606 692h-494l23 195h772l-16 -137l-607 -692h541l-23 -195h-819z" />
<glyph unicode="{" horiz-adv-x="536" d="M43 -166l113 643q6 40 -33 43h-66l27 209h57q49 0 49 43l46 643q9 132 86 194t204 62h70l-27 -211h-69q-47 0 -47 -41l-41 -637q-8 -86 -76 -157q51 -74 37 -158l-115 -637q-7 -41 39 -41h70l-27 -211h-70q-127 0 -189 62t-38 194z" />
<glyph unicode="|" horiz-adv-x="612" d="M84 -422l256 2093h215l-256 -2093h-215z" />
<glyph unicode="}" horiz-adv-x="536" d="M-33 -422l27 211h69q48 0 48 41l41 637q6 82 75 158q-53 74 -37 157l115 637q7 41 -39 41h-69l26 211h70q127 0 190 -62t39 -194l-114 -643q-6 -43 41 -43h57l-27 -209h-57q-49 0 -49 -43l-43 -643q-9 -132 -87 -194t-206 -62h-70z" />
<glyph unicode="~" horiz-adv-x="757" d="M90 668l21 159q70 -55 145 -55q34 0 71 20.5t65.5 45t75.5 45t99 20.5q48 0 90 -22.5t68 -51.5l-20 -159q-67 55 -146 55q-34 0 -71 -20.5t-65.5 -45t-75.5 -45t-99 -20.5q-48 0 -90 22.5t-68 51.5z" />
<glyph unicode="&#xa1;" horiz-adv-x="450" d="M-39 -512l209 1106h131l-61 -1106h-279zM129 907q8 60 55 102t107 42t96.5 -42t28.5 -102q-6 -60 -53 -101.5t-107 -41.5t-96.5 41.5t-30.5 101.5z" />
<glyph unicode="&#xa2;" d="M154 768q36 291 198.5 428t446.5 137h8l94 203h227l-110 -221q115 -17 192 -49l-24 -201q-79 32 -198 50t-226 18q-350 0 -395 -365t307 -365q106 0 229 18t211 50l-24 -201q-87 -34 -211 -50.5t-217 -16.5h-50l-94 -203h-227l117 240q-305 104 -254 528z" />
<glyph unicode="&#xa3;" d="M41 0l22 193h134l61 512h-133l25 192h133l32 266q50 400 510 400q83 0 203.5 -19.5t188.5 -50.5l-23 -193q-74 26 -188 47t-203 21q-124 0 -194.5 -51.5t-82.5 -151.5l-32 -268h518l-25 -192h-518l-61 -512h690l-23 -193h-1034z" />
<glyph unicode="&#xa4;" horiz-adv-x="1118" d="M72 512l24 203h113l12 106h-112l24 203h125q31 136 77.5 233.5t118 167.5t173.5 104t237 34q192 0 316 -56l-25 -198q-154 53 -313 53q-148 0 -233.5 -83t-131.5 -255h533l-92 -203h-480l-12 -106h444l-92 -203h-362q3 -174 67.5 -256t212.5 -82q161 0 328 53l-25 -198 q-138 -56 -327 -56q-265 0 -372.5 132t-102.5 407h-125z" />
<glyph unicode="&#xa5;" d="M113 512l24 203h328l-43 106h-272l24 203h168l-203 512h254l260 -707l432 707h254l-329 -512h168l-25 -203h-274l-68 -106h330l-25 -203h-395l-62 -512h-213l62 512h-395z" />
<glyph unicode="&#xa6;" horiz-adv-x="612" d="M84 -422l117 946h215l-117 -946h-215zM225 725l115 946h215l-115 -946h-215z" />
<glyph unicode="&#xa7;" horiz-adv-x="1329" d="M33 -455l28 222q118 -56 213 -78.5t203 -22.5q95 0 162.5 18t105.5 53t57 75.5t25 95.5q7 59 -6 96.5t-65 62.5t-87.5 34.5t-135.5 28.5q-4 1 -7 1.5t-6 1.5h2q-82 14 -142.5 29t-111 34.5t-82 43.5t-55.5 55t-32.5 69t-11.5 86.5t7 106.5q10 94 60 186t147 160 q-35 78 -20 215q8 62 27.5 118.5t63.5 118t107.5 106t166.5 73.5t233 29q231 0 415 -84l-26 -222q-118 56 -213 78.5t-203 22.5q-95 0 -162.5 -18t-105.5 -53t-57 -75.5t-25 -95.5q-7 -59 6 -96.5t65 -62.5t87.5 -34.5t135.5 -28.5q9 -2 13 -3h-2q82 -14 142.5 -29 t111 -34.5t82 -43.5t55.5 -55t32.5 -69t11.5 -86.5t-7 -106.5q-10 -95 -60.5 -186.5t-148.5 -159.5q38 -83 23 -215q-8 -62 -27.5 -118.5t-64 -118t-108.5 -106t-167 -73.5t-233 -29q-228 0 -416 84zM315 555q-7 -59 1 -95t51.5 -59.5t74.5 -32t126 -26.5q12 -3 18 -4h-2 q167 -29 274 -74q143 71 156 205q7 59 -1 95t-51.5 59.5t-74.5 32t-126 26.5q-12 3 -18 4h2q-178 32 -274 74q-142 -70 -156 -205z" />
<glyph unicode="&#xa8;" horiz-adv-x="1105" d="M309 1366q8 60 54 101.5t106 41.5t97 -41.5t30 -101.5t-54.5 -101.5t-107.5 -41.5t-96.5 41.5t-28.5 101.5zM760 1366q8 60 54 101.5t106 41.5t97 -41.5t30 -101.5t-54.5 -101.5t-107.5 -41.5t-96.5 41.5t-28.5 101.5z" />
<glyph unicode="&#xa9;" horiz-adv-x="1392" d="M140.5 361.5q-0.5 67.5 6.5 150.5q15 129 56.5 226t97.5 156t133 95t155 49t173 13t169.5 -13t142.5 -49t109.5 -95t59 -156t2.5 -226t-56.5 -226t-97 -156t-133 -95t-155 -49t-172.5 -13q-58 0 -107.5 5t-100 17t-89.5 31.5t-75.5 49.5t-59.5 70.5t-40.5 94t-18 121z M324 406q-1 -47 10 -83.5t24.5 -64t37.5 -47.5t49.5 -32.5t60 -20t69 -10.5t76.5 -3q69 0 121.5 8t104 31.5t86.5 63t62 106t38 158.5q5 59 6 106t-10 83.5t-24.5 64t-38 47.5t-49.5 32.5t-60 20t-69.5 10.5t-76.5 3q-69 0 -121 -8t-103.5 -31.5t-87 -63t-62 -106 t-37.5 -158.5q-5 -59 -6 -106zM418 512q20 160 97.5 228.5t217.5 68.5q81 0 185 -23l-21 -168q-117 31 -184 31q-59 0 -88 -28.5t-39 -108.5t12.5 -108.5t81.5 -28.5q66 0 192 31l-20 -168q-112 -23 -193 -23q-140 0 -200.5 68t-40.5 229z" />
<glyph unicode="&#xaa;" horiz-adv-x="960" d="M193 1157q25 202 123.5 304t283.5 102q125 0 199 -52l12 25h141l-94 -768h-141l-8 31q-80 -47 -207 -47q-185 0 -259 101.5t-50 303.5zM387 1157q-13 -118 18.5 -167.5t118.5 -49.5q93 0 162 41l43 350q-57 43 -151 43q-87 0 -131.5 -50t-59.5 -167z" />
<glyph unicode="&#xab;" horiz-adv-x="1013" d="M100 418l25 188l424 287l-23 -178l-243 -203l194 -203l-22 -180zM489 418l25 188l424 287l-23 -178l-243 -203l194 -203l-22 -180z" />
<glyph unicode="&#xac;" horiz-adv-x="1351" d="M102 0l123 1024h1024l-123 -1024h-1024z" />
<glyph unicode="&#xad;" horiz-adv-x="757" d="M113 598l24 201h553l-24 -201h-553z" />
<glyph unicode="&#xae;" horiz-adv-x="704" d="M160 1280q8 68 30 119t51 81.5t69 49.5t80 26t89 7q62 0 108.5 -12t85.5 -41.5t54.5 -87.5t5.5 -142q-10 -83 -40 -141t-75.5 -87.5t-94.5 -42t-111 -12.5q-49 0 -88 7t-74.5 26t-57.5 50t-31 82t-1 118zM252 1280q-7 -62 1.5 -102.5t34 -60.5t56.5 -27t78 -7t80 7 t63.5 27t49.5 60.5t26 102.5t-2 102.5t-35 60.5t-57 27t-78 7t-79.5 -7t-63 -27t-49 -60.5t-25.5 -102.5zM305 1126l37 308h137q106 0 96 -101q-6 -63 -49 -88l43 -119h-92l-31 103h-47l-12 -103h-82zM408 1309h51q16 0 21 6t7 18q2 11 -2 16t-20 5h-51z" />
<glyph unicode="&#xaf;" horiz-adv-x="1232" d="M432 1313l23 186h561l-23 -186h-561z" />
<glyph unicode="&#xb0;" horiz-adv-x="749" d="M180 1280q10 79 41.5 136.5t77.5 88.5t96 44.5t107 13.5t104 -13.5t86.5 -44.5t57.5 -88.5t8 -136.5t-41.5 -136t-78.5 -88t-97 -45t-107 -14t-103.5 14t-85.5 45t-57 88t-8 136zM340 1280q-16 -131 113 -131t145 131q14 131 -115 131t-143 -131z" />
<glyph unicode="&#xb1;" horiz-adv-x="1064" d="M72 88l24 201h819l-24 -201h-819zM145 700l25 201h309l39 309h201l-39 -309h309l-24 -201h-310l-37 -309h-200l37 309h-310z" />
<glyph unicode="&#xb4;" horiz-adv-x="1105" d="M598 1178l207 358h248l-340 -358h-115z" />
<glyph unicode="&#xb5;" horiz-adv-x="1101" d="M8 -512l187 1536h211l-89 -733q-7 -64 34.5 -93.5t115.5 -29.5q141 0 244 49l98 807h211l-123 -1024h-141l-15 57q-137 -84 -297 -84q-89 0 -163 23l-62 -508h-211z" />
<glyph unicode="&#xb6;" horiz-adv-x="1241" d="M139 1061q9 77 34 145t72 129.5t112 105t159.5 69.5t208.5 26h487l-186 -1536h-217l70 584h-162l-70 -584h-215l72 590q-111 13 -190 56.5t-119 108.5t-53.5 141t-2.5 165zM373 1061q-30 -220 155 -262l64 522q-193 -42 -219 -260zM741 788h162l68 543h-162z" />
<glyph unicode="&#xb7;" horiz-adv-x="450" d="M115 768q6 60 52.5 101.5t106.5 41.5t96.5 -41.5t30.5 -101.5q-7 -60 -54 -101.5t-107 -41.5t-96.5 41.5t-28.5 101.5z" />
<glyph unicode="&#xb8;" horiz-adv-x="1232" d="M338 -379q32 25 56.5 56t31 60.5t-19.5 45.5q-36 21 -45 51.5t5.5 62.5t31.5 56.5t38 46.5h146q-27 -30 -40.5 -50t-11.5 -47.5t35 -47.5q44 -26 58 -60.5t0.5 -67.5t-33 -59t-43.5 -47h-209z" />
<glyph unicode="&#xba;" horiz-adv-x="960" d="M193 1157q25 202 123.5 304t283.5 102q375 0 324 -406q-48 -405 -422 -405q-185 0 -259 101.5t-50 303.5zM387 1157q-13 -118 18.5 -167.5t118.5 -49.5q93 0 143.5 51t63.5 166q15 115 -22.5 166t-130.5 51q-87 0 -131.5 -50t-59.5 -167z" />
<glyph unicode="&#xbb;" horiz-adv-x="1013" d="M76 129l22 180l244 203l-195 203l23 178l354 -287l-24 -188zM465 129l22 180l244 203l-194 203l22 178l354 -287l-24 -188z" />
<glyph unicode="&#xbf;" horiz-adv-x="1024" d="M-10 -205.5q2 44.5 6 90.5q7 56 21.5 102.5t34 82t51 67.5t61 54.5t75.5 46t84.5 40t96.5 39.5q36 14 61 33.5t40 40t25.5 56t15.5 64.5t11 83h150q5 -130 0 -166q-11 -98 -71.5 -171t-194.5 -122q-106 -40 -141 -62q-94 -60 -109 -186q-9 -51 -0.5 -92.5t34 -71.5 t83.5 -46.5t149 -16.5q161 0 342 61l-24 -200q-60 -23 -164 -41.5t-176 -18.5q-90 0 -162.5 12.5t-121.5 34.5t-85 53t-54 68t-29 79t-9 86.5zM518 907q8 60 55 102t107 42t96.5 -42t28.5 -102q-6 -60 -53 -101.5t-107 -41.5t-96.5 41.5t-30.5 101.5z" />
<glyph unicode="&#xc0;" horiz-adv-x="1402" d="M20 0l734 1563h149l357 -1563h-236l-82 408h-508l-178 -408h-236zM522 606h381l-117 602zM535 2048h247l121 -358h-115z" />
<glyph unicode="&#xc1;" horiz-adv-x="1402" d="M20 0l734 1563h149l357 -1563h-236l-82 408h-508l-178 -408h-236zM522 606h381l-117 602zM788 1690l207 358h248l-340 -358h-115z" />
<glyph unicode="&#xc2;" horiz-adv-x="1402" d="M20 0l734 1563h149l357 -1563h-236l-82 408h-508l-178 -408h-236zM481 1690l299 358h217l213 -358h-114l-224 215l-276 -215h-115zM522 606h381l-117 602z" />
<glyph unicode="&#xc3;" horiz-adv-x="1402" d="M20 0l734 1563h149l357 -1563h-236l-82 408h-508l-178 -408h-236zM522 606h381l-117 602zM551 1788l18 160q71 -56 148 -56q34 0 71 20.5t65.5 45t75.5 45t99 20.5q89 0 158 -73l-21 -160q-70 55 -147 55q-34 0 -70.5 -20.5t-65 -45t-75 -45t-98.5 -20.5q-48 0 -90 22.5 t-68 51.5z" />
<glyph unicode="&#xc4;" horiz-adv-x="1402" d="M20 0l734 1563h149l357 -1563h-236l-82 408h-508l-178 -408h-236zM500 1878q7 60 54.5 101.5t107.5 41.5t96 -41.5t28 -101.5q-6 -60 -52.5 -101.5t-106.5 -41.5t-96.5 41.5t-30.5 101.5zM522 606h381l-117 602zM950 1878q7 60 54.5 101.5t107.5 41.5t96.5 -41.5 t28.5 -101.5q-6 -60 -53 -101.5t-107 -41.5t-96.5 41.5t-30.5 101.5z" />
<glyph unicode="&#xc5;" horiz-adv-x="1402" d="M20 0l734 1563h149l357 -1563h-236l-82 408h-508l-178 -408h-236zM522 606h381l-117 602zM659 1868q12 104 74 155.5t160 51.5q96 0 145 -51.5t37 -155.5q-13 -102 -75 -153.5t-158 -51.5q-97 0 -146.5 51.5t-36.5 153.5zM778 1868q-6 -48 13 -68t65 -20q45 0 70.5 20.5 t31.5 67.5q6 50 -14 71t-65 21q-46 0 -70.5 -20.5t-30.5 -71.5z" />
<glyph unicode="&#xc6;" horiz-adv-x="2088" d="M-63 0l1196 1536h940l-25 -205h-711l-53 -434h641l-24 -205h-641l-60 -487h711l-25 -205h-925l83 692h-323l-528 -692h-256zM877 897h192l37 301z" />
<glyph unicode="&#xc7;" horiz-adv-x="1318" d="M161.5 572q-1.5 95 12.5 196q17 136 49.5 250.5t89.5 217t135 173.5t189.5 112.5t247.5 41.5q242 0 409 -76l-26 -219q-116 51 -208 70.5t-200 19.5q-106 0 -188.5 -44.5t-137 -126.5t-88 -185.5t-49.5 -233.5q-11 -100 -10.5 -188.5t21.5 -162.5t58.5 -127t101.5 -82.5 t149 -29.5q108 0 204 19.5t224 70.5l-27 -219q-167 -69 -377 -74q-59 -78 9 -120q44 -26 57.5 -60.5t0 -67.5t-33 -59t-43.5 -47h-209q32 25 56.5 56t31.5 60.5t-18 45.5q-42 24 -47 62.5t11.5 70.5t43.5 64q-95 11 -170 45.5t-124.5 88t-83 124.5t-46.5 155t-14.5 179z" />
<glyph unicode="&#xc8;" horiz-adv-x="1241" d="M113 0l186 1536h924l-25 -205h-709l-53 -434h641l-24 -205h-641l-60 -487h709l-25 -205h-923zM469 2048h248l121 -358h-115z" />
<glyph unicode="&#xc9;" horiz-adv-x="1241" d="M113 0l186 1536h924l-25 -205h-709l-53 -434h641l-24 -205h-641l-60 -487h709l-25 -205h-923zM723 1690l207 358h248l-340 -358h-115z" />
<glyph unicode="&#xca;" horiz-adv-x="1241" d="M113 0l186 1536h924l-25 -205h-709l-53 -434h641l-24 -205h-641l-60 -487h709l-25 -205h-923zM416 1690l299 358h217l213 -358h-115l-223 215l-277 -215h-114z" />
<glyph unicode="&#xcb;" horiz-adv-x="1241" d="M113 0l186 1536h924l-25 -205h-709l-53 -434h641l-24 -205h-641l-60 -487h709l-25 -205h-923zM434 1878q7 60 54.5 101.5t107.5 41.5t96.5 -41.5t28.5 -101.5q-6 -60 -53 -101.5t-107 -41.5t-96.5 41.5t-30.5 101.5zM885 1878q7 60 54.5 101.5t107.5 41.5t96 -41.5 t28 -101.5q-6 -60 -52.5 -101.5t-106.5 -41.5t-96.5 41.5t-30.5 101.5z" />
<glyph unicode="&#xcc;" horiz-adv-x="653" d="M158 0l186 1536h215l-186 -1536h-215zM160 2048h248l120 -358h-114z" />
<glyph unicode="&#xcd;" horiz-adv-x="653" d="M158 0l186 1536h215l-186 -1536h-215zM414 1690l207 358h247l-340 -358h-114z" />
<glyph unicode="&#xce;" horiz-adv-x="653" d="M106 1690l300 358h217l213 -358h-115l-223 215l-277 -215h-115zM158 0l186 1536h215l-186 -1536h-215z" />
<glyph unicode="&#xcf;" horiz-adv-x="653" d="M125 1878q7 60 54.5 101.5t107.5 41.5t96.5 -41.5t28.5 -101.5q-6 -60 -53 -101.5t-107 -41.5t-96.5 41.5t-30.5 101.5zM158 0l186 1536h215l-186 -1536h-215zM575 1878q7 60 54.5 101.5t107.5 41.5t96.5 -41.5t28.5 -101.5q-6 -60 -53 -101.5t-107 -41.5t-96.5 41.5 t-30.5 101.5z" />
<glyph unicode="&#xd0;" horiz-adv-x="1447" d="M53 688l21 168h184l84 680h436q125 0 221.5 -26.5t161 -75.5t107.5 -118.5t60.5 -154.5t21 -184.5t-12.5 -208.5q-17 -137 -49.5 -248t-91 -210t-139.5 -166t-199.5 -105.5t-267.5 -38.5h-436l84 688h-185zM393 205h230q116 0 204 41t144.5 118.5t89.5 176t49 227.5 q10 99 9 184.5t-23.5 155.5t-63 119.5t-109.5 76.5t-163 27h-230l-57 -475h277l-21 -168h-276z" />
<glyph unicode="&#xd1;" horiz-adv-x="1437" d="M113 0l188 1536h170l578 -1114l133 1114h209l-189 -1536h-170l-579 1114l-131 -1114h-209zM471 1743q22 146 92.5 215t198.5 67q47 -1 82.5 -15t57.5 -32.5t40.5 -37t40.5 -31.5t49 -13q29 0 49.5 9.5t32 27.5t16.5 35t9 41l161 -14q-37 -287 -290 -281q-47 1 -83 14 t-58 31.5t-41 37t-41 31.5t-48 13q-55 0 -76.5 -30t-29.5 -82z" />
<glyph unicode="&#xd2;" horiz-adv-x="1454" d="M156.5 506.5q-0.5 67.5 4 128.5t13.5 133q12 94 26.5 171t40 161.5t59.5 149.5t86 126t117 100.5t154.5 63t196.5 23.5q84 0 154 -14.5t121.5 -39.5t91 -63.5t65.5 -82t42 -99.5t23 -111.5t7.5 -123t-4 -128.5t-13.5 -133q-12 -95 -26 -171t-40 -161t-59.5 -150t-85 -126 t-116.5 -100.5t-154.5 -63t-197.5 -23.5q-84 0 -153.5 14.5t-121 39.5t-91 63.5t-65.5 82t-42.5 99.5t-24 111.5t-8 123zM380 513q2 -63 13 -110.5t33.5 -91.5t56.5 -72t85.5 -44.5t117.5 -16.5q92 0 163 32t115.5 83t77 131.5t49 159t29.5 184.5q9 74 13 133t2 122 t-13 110.5t-33.5 91.5t-56.5 72t-85.5 44.5t-117.5 16.5q-92 0 -163 -32t-115.5 -83t-77 -131.5t-49 -159t-29.5 -184.5q-9 -74 -13 -133t-2 -122zM559 2048h248l121 -358h-115z" />
<glyph unicode="&#xd3;" horiz-adv-x="1454" d="M156.5 506.5q-0.5 67.5 4 128.5t13.5 133q12 94 26.5 171t40 161.5t59.5 149.5t86 126t117 100.5t154.5 63t196.5 23.5q84 0 154 -14.5t121.5 -39.5t91 -63.5t65.5 -82t42 -99.5t23 -111.5t7.5 -123t-4 -128.5t-13.5 -133q-12 -95 -26 -171t-40 -161t-59.5 -150t-85 -126 t-116.5 -100.5t-154.5 -63t-197.5 -23.5q-84 0 -153.5 14.5t-121 39.5t-91 63.5t-65.5 82t-42.5 99.5t-24 111.5t-8 123zM380 513q2 -63 13 -110.5t33.5 -91.5t56.5 -72t85.5 -44.5t117.5 -16.5q92 0 163 32t115.5 83t77 131.5t49 159t29.5 184.5q9 74 13 133t2 122 t-13 110.5t-33.5 91.5t-56.5 72t-85.5 44.5t-117.5 16.5q-92 0 -163 -32t-115.5 -83t-77 -131.5t-49 -159t-29.5 -184.5q-9 -74 -13 -133t-2 -122zM813 1690l207 358h248l-340 -358h-115z" />
<glyph unicode="&#xd4;" horiz-adv-x="1454" d="M156.5 506.5q-0.5 67.5 4 128.5t13.5 133q12 94 26.5 171t40 161.5t59.5 149.5t86 126t117 100.5t154.5 63t196.5 23.5q84 0 154 -14.5t121.5 -39.5t91 -63.5t65.5 -82t42 -99.5t23 -111.5t7.5 -123t-4 -128.5t-13.5 -133q-12 -95 -26 -171t-40 -161t-59.5 -150t-85 -126 t-116.5 -100.5t-154.5 -63t-197.5 -23.5q-84 0 -153.5 14.5t-121 39.5t-91 63.5t-65.5 82t-42.5 99.5t-24 111.5t-8 123zM380 513q2 -63 13 -110.5t33.5 -91.5t56.5 -72t85.5 -44.5t117.5 -16.5q92 0 163 32t115.5 83t77 131.5t49 159t29.5 184.5q9 74 13 133t2 122 t-13 110.5t-33.5 91.5t-56.5 72t-85.5 44.5t-117.5 16.5q-92 0 -163 -32t-115.5 -83t-77 -131.5t-49 -159t-29.5 -184.5q-9 -74 -13 -133t-2 -122zM506 1690l299 358h217l213 -358h-115l-223 215l-276 -215h-115z" />
<glyph unicode="&#xd5;" horiz-adv-x="1454" d="M158 506.5q0 67.5 4.5 128.5t13.5 133q12 94 26.5 171t40 161.5t59.5 149.5t86 126t117 100.5t154.5 63t196.5 23.5q84 0 154 -14.5t121.5 -39.5t91 -63.5t65.5 -82t42 -99.5t23 -111.5t7.5 -123t-4 -128.5t-13.5 -133q-12 -95 -26.5 -171t-40.5 -161t-60 -149.5 t-85.5 -126t-116.5 -101t-154.5 -63t-197.5 -23.5q-84 0 -153.5 14.5t-121 39.5t-91 63.5t-65.5 82t-42.5 99.5t-23.5 111.5t-7 123zM382 513q2 -63 12.5 -110.5t32.5 -91.5t56 -72t85.5 -44.5t117.5 -16.5q92 0 163 32t116 83t77.5 131.5t49.5 159.5t30 184q9 74 13 133 t2 122t-13 110.5t-33.5 91.5t-56.5 72t-85.5 44.5t-117.5 16.5q-92 0 -163 -32t-115.5 -83t-77 -131.5t-49 -159t-29.5 -184.5q-9 -74 -13 -133t-2 -122zM479 1743q22 146 92.5 215t198.5 67q47 -1 82.5 -15t57.5 -32.5t40.5 -37t40.5 -31.5t49 -13q29 0 49.5 9.5t32 27.5 t16.5 35t9 41l162 -14q-37 -287 -291 -281q-57 1 -99.5 21t-63 43.5t-48.5 43t-59 19.5q-29 0 -49.5 -9t-32 -27t-16.5 -35t-9 -41z" />
<glyph unicode="&#xd6;" horiz-adv-x="1454" d="M156.5 506.5q-0.5 67.5 4 128.5t13.5 133q12 94 26.5 171t40 161.5t59.5 149.5t86 126t117 100.5t154.5 63t196.5 23.5q84 0 154 -14.5t121.5 -39.5t91 -63.5t65.5 -82t42 -99.5t23 -111.5t7.5 -123t-4 -128.5t-13.5 -133q-12 -95 -26 -171t-40 -161t-59.5 -150t-85 -126 t-116.5 -100.5t-154.5 -63t-197.5 -23.5q-84 0 -153.5 14.5t-121 39.5t-91 63.5t-65.5 82t-42.5 99.5t-24 111.5t-8 123zM380 513q2 -63 13 -110.5t33.5 -91.5t56.5 -72t85.5 -44.5t117.5 -16.5q92 0 163 32t115.5 83t77 131.5t49 159t29.5 184.5q9 74 13 133t2 122 t-13 110.5t-33.5 91.5t-56.5 72t-85.5 44.5t-117.5 16.5q-92 0 -163 -32t-115.5 -83t-77 -131.5t-49 -159t-29.5 -184.5q-9 -74 -13 -133t-2 -122zM524 1878q7 60 54.5 101.5t107.5 41.5t96.5 -41.5t28.5 -101.5q-6 -60 -53 -101.5t-107 -41.5t-96.5 41.5t-30.5 101.5z M975 1878q7 60 54.5 101.5t107.5 41.5t96.5 -41.5t28.5 -101.5q-6 -60 -53 -101.5t-107 -41.5t-96.5 41.5t-30.5 101.5z" />
<glyph unicode="&#xd7;" horiz-adv-x="1064" d="M168 479l246 219l-193 220l160 141l190 -219l248 219l123 -141l-246 -220l193 -219l-158 -141l-192 219l-246 -219z" />
<glyph unicode="&#xd8;" horiz-adv-x="1454" d="M53 0l156 211q-32 71 -44 167.5t-8.5 185.5t17.5 204q12 94 26.5 171t40 161.5t59.5 149.5t86 126t117 100.5t154.5 63t196.5 23.5q192 0 309 -74l35 47h279l-166 -221q76 -181 30 -547q-12 -95 -26 -171t-40 -161t-59.5 -150t-85 -126t-116.5 -100.5t-154.5 -63 t-197.5 -23.5q-185 0 -302 68l-28 -41h-279zM385 446l639 857q-74 55 -195 55q-92 0 -163 -32t-115.5 -83t-77 -131.5t-49 -159t-29.5 -184.5q-23 -196 -10 -322zM500 225q68 -47 186 -47q92 0 163 32t115.5 83t77 131.5t49 159t29.5 184.5q23 185 10 305z" />
<glyph unicode="&#xd9;" horiz-adv-x="1437" d="M162 489l127 1047h215l-125 -1020q-11 -89 6.5 -154.5t48 -99.5t79 -53.5t85 -24t80.5 -4.5q341 0 381 336l125 1020h215l-127 -1047q-11 -92 -42 -168.5t-71.5 -129t-94 -92.5t-106 -63.5t-110.5 -38t-104 -19.5t-91 -5t-89.5 5t-99 19.5t-101 38t-90 63.5t-71.5 92.5 t-39.5 129t-0.5 168.5zM551 2048h248l121 -358h-115z" />
<glyph unicode="&#xda;" horiz-adv-x="1437" d="M162 489l127 1047h215l-125 -1020q-11 -89 6.5 -154.5t48 -99.5t79 -53.5t85 -24t80.5 -4.5q341 0 381 336l125 1020h215l-127 -1047q-11 -92 -42 -168.5t-71.5 -129t-94 -92.5t-106 -63.5t-110.5 -38t-104 -19.5t-91 -5t-89.5 5t-99 19.5t-101 38t-90 63.5t-71.5 92.5 t-39.5 129t-0.5 168.5zM805 1690l207 358h248l-340 -358h-115z" />
<glyph unicode="&#xdb;" horiz-adv-x="1437" d="M162 489l127 1047h215l-125 -1020q-11 -89 6.5 -154.5t48 -99.5t79 -53.5t85 -24t80.5 -4.5q341 0 381 336l125 1020h215l-127 -1047q-11 -92 -42 -168.5t-71.5 -129t-94 -92.5t-106 -63.5t-110.5 -38t-104 -19.5t-91 -5t-89.5 5t-99 19.5t-101 38t-90 63.5t-71.5 92.5 t-39.5 129t-0.5 168.5zM498 1690l299 358h217l213 -358h-115l-223 215l-277 -215h-114z" />
<glyph unicode="&#xdc;" horiz-adv-x="1437" d="M162 489l127 1047h215l-125 -1020q-11 -89 6.5 -154.5t48 -99.5t79 -53.5t85 -24t80.5 -4.5q341 0 381 336l125 1020h215l-127 -1047q-11 -92 -42 -168.5t-71.5 -129t-94 -92.5t-106 -63.5t-110.5 -38t-104 -19.5t-91 -5t-89.5 5t-99 19.5t-101 38t-90 63.5t-71.5 92.5 t-39.5 129t-0.5 168.5zM516 1878q7 60 54.5 101.5t107.5 41.5t96.5 -41.5t28.5 -101.5q-6 -60 -53 -101.5t-107 -41.5t-96.5 41.5t-30.5 101.5zM967 1878q7 60 54 101.5t107 41.5t96.5 -41.5t28.5 -101.5q-6 -60 -52.5 -101.5t-106.5 -41.5t-96.5 41.5t-30.5 101.5z" />
<glyph unicode="&#xdd;" horiz-adv-x="1486" d="M207 1536h258l315 -717l492 717h258l-666 -903l-76 -633h-213l76 633zM829 1690l207 358h248l-340 -358h-115z" />
<glyph unicode="&#xde;" horiz-adv-x="1282" d="M113 0l186 1536h217l-37 -293h271q96 0 173.5 -18t130 -50t91 -76.5t55.5 -97t24 -112t-3 -121.5q-10 -78 -35 -146t-72 -129.5t-111.5 -105.5t-159 -70t-208.5 -26h-270l-35 -291h-217zM389 496h277q290 0 321 272q35 270 -256 270h-276z" />
<glyph unicode="&#xdf;" horiz-adv-x="1320" d="M39 -512l209 1714q20 159 147 256.5t355 97.5q227 0 331.5 -98t83.5 -256q-19 -139 -88.5 -214t-224.5 -114q-76 -19 -111 -47.5t-41 -78.5q-6 -46 30 -69.5t140 -35.5q109 -13 179 -39t105.5 -68t45.5 -92t2 -122q-6 -52 -25 -99.5t-56 -92.5t-88.5 -77.5t-127.5 -52.5 t-168 -20q-72 0 -166 18t-147 41l25 197q167 -62 315 -62q115 0 168.5 41.5t62.5 103.5q7 60 -25 94t-139 44q-89 8 -153 26t-100.5 44t-57.5 60.5t-23.5 74.5t1.5 86q10 86 41.5 141.5t100 97.5t185.5 70q39 10 65 25t39.5 36t19 39.5t9.5 46.5q8 70 -50.5 114t-180.5 44 q-124 0 -195 -44.5t-79 -113.5l-209 -1716h-205z" />
<glyph unicode="&#xe0;" horiz-adv-x="1148" d="M117 292q-12 99 6 220q15 127 48 221t91.5 168t151 112t219.5 38q128 0 270 -84l27 57h137l-123 -1024h-137l-14 57q-161 -84 -291 -84q-127 0 -211 39t-123 110t-51 170zM327 380.5q3 -62.5 19 -109.5t61 -75t117 -28q135 0 238 49l74 590q-96 49 -228 49 q-72 0 -123 -26.5t-80.5 -78t-44 -106.5t-24.5 -133q-12 -69 -9 -131.5zM338 1536h248l121 -358h-115z" />
<glyph unicode="&#xe1;" horiz-adv-x="1148" d="M117 292q-12 99 6 220q15 127 48 221t91.5 168t151 112t219.5 38q128 0 270 -84l27 57h137l-123 -1024h-137l-14 57q-161 -84 -291 -84q-127 0 -211 39t-123 110t-51 170zM327 380.5q3 -62.5 19 -109.5t61 -75t117 -28q135 0 238 49l74 590q-96 49 -228 49 q-72 0 -123 -26.5t-80.5 -78t-44 -106.5t-24.5 -133q-12 -69 -9 -131.5zM592 1178l207 358h248l-340 -358h-115z" />
<glyph unicode="&#xe2;" horiz-adv-x="1148" d="M117 292q-12 99 6 220q15 127 48 221t91.5 168t151 112t219.5 38q128 0 270 -84l27 57h137l-123 -1024h-137l-14 57q-161 -84 -291 -84q-127 0 -211 39t-123 110t-51 170zM285 1178l299 358h217l213 -358h-115l-225 215l-275 -215h-114zM327 380.5q3 -62.5 19 -109.5 t61 -75t117 -28q135 0 238 49l74 590q-96 49 -228 49q-72 0 -123 -26.5t-80.5 -78t-44 -106.5t-24.5 -133q-12 -69 -9 -131.5z" />
<glyph unicode="&#xe3;" horiz-adv-x="1148" d="M117 292q-12 99 6 220q15 127 48 221t91.5 168t151 112t219.5 38q128 0 270 -84l27 57h137l-123 -1024h-137l-14 57q-161 -84 -291 -84q-127 0 -211 39t-123 110t-51 170zM266 1231q22 146 92.5 215t198.5 67q47 -1 83 -15t58 -32.5t40.5 -37t41 -31.5t49.5 -13 q29 0 49.5 9.5t31 28t15.5 35t9 40.5l162 -14q-37 -287 -289 -281q-47 1 -83 14t-58.5 31.5t-41 37t-41 31.5t-48.5 13q-29 0 -49.5 -9t-31.5 -27t-16 -34.5t-10 -41.5zM327 380.5q3 -62.5 19 -109.5t61 -75t117 -28q135 0 238 49l74 590q-96 49 -228 49q-72 0 -123 -26.5 t-80.5 -78t-44 -106.5t-24.5 -133q-12 -69 -9 -131.5z" />
<glyph unicode="&#xe4;" horiz-adv-x="1148" d="M117 292q-12 99 6 220q15 127 48 221t91.5 168t151 112t219.5 38q128 0 270 -84l27 57h137l-123 -1024h-137l-14 57q-161 -84 -291 -84q-127 0 -211 39t-123 110t-51 170zM303 1366q8 60 54 101.5t106 41.5t97 -41.5t30 -101.5t-54.5 -101.5t-107.5 -41.5t-96.5 41.5 t-28.5 101.5zM327 380.5q3 -62.5 19 -109.5t61 -75t117 -28q135 0 238 49l74 590q-96 49 -228 49q-72 0 -123 -26.5t-80.5 -78t-44 -106.5t-24.5 -133q-12 -69 -9 -131.5zM754 1366q8 60 53.5 101.5t105.5 41.5t97 -41.5t30 -101.5t-54 -101.5t-107 -41.5t-96.5 41.5 t-28.5 101.5z" />
<glyph unicode="&#xe5;" horiz-adv-x="1148" d="M117 292q-12 99 6 220q15 127 48 221t91.5 168t151 112t219.5 38q128 0 270 -84l27 57h137l-123 -1024h-137l-14 57q-161 -84 -291 -84q-127 0 -211 39t-123 110t-51 170zM327 380.5q3 -62.5 19 -109.5t61 -75t117 -28q135 0 238 49l74 590q-96 49 -228 49 q-72 0 -123 -26.5t-80.5 -78t-44 -106.5t-24.5 -133q-12 -69 -9 -131.5zM461 1356q13 104 74.5 155.5t158.5 51.5q96 0 146 -52t37 -155q-12 -102 -74 -153.5t-158 -51.5q-97 0 -146.5 51t-37.5 154zM580 1356q-6 -48 13.5 -68t65.5 -20q45 0 70 20t31 68q6 51 -13.5 71.5 t-64.5 20.5q-46 0 -71 -20.5t-31 -71.5z" />
<glyph unicode="&#xe6;" horiz-adv-x="1789" d="M123 303q30 307 426 307h258q0 116 -48 181t-163 65q-99 0 -180 -16.5t-180 -57.5l24 199q163 70 361 70q239 0 335 -142q129 142 369 142q204 0 295.5 -92t71.5 -238q-30 -307 -426 -307h-258q0 -116 47 -181t162 -65q99 0 181 16.5t181 57.5l-25 -199 q-163 -70 -360 -70q-239 0 -336 140q-130 -140 -369 -140q-204 0 -295 91.5t-71 238.5zM336 305q-9 -61 28.5 -99t147.5 -38q64 0 112 19t79 56.5t50.5 81.5t32.5 103h-270q-92 0 -132.5 -32.5t-47.5 -90.5zM1028 596h270q167 0 181 123q9 61 -30 99t-149 38 q-122 0 -183 -67.5t-89 -192.5z" />
<glyph unicode="&#xe7;" horiz-adv-x="1003" d="M117 310q-9 92 6 202q15 126 50 221.5t95.5 168.5t155 111t221.5 38q193 0 313 -60l-22 -194q-162 59 -315 59q-73 0 -125.5 -26.5t-84 -77t-49 -107.5t-26.5 -133q-11 -70 -6.5 -132.5t23 -109.5t65 -74.5t119.5 -27.5q154 0 329 59l-24 -194q-115 -51 -279 -58 q-59 -79 8 -120q44 -26 58 -60.5t0.5 -67.5t-33 -59t-43.5 -47h-209q32 25 56.5 56t31.5 60.5t-18 45.5q-32 19 -43.5 45t-3 54t21.5 51.5t33 46.5q-99 13 -165.5 57t-98.5 112.5t-41 160.5z" />
<glyph unicode="&#xe8;" horiz-adv-x="1110" d="M115.5 331.5q-2.5 82.5 7.5 180.5q15 126 50 221.5t95.5 168.5t155 111t221.5 38q204 0 295.5 -92t71.5 -238q-30 -307 -426 -307h-258q0 -116 47 -181t162 -65q99 0 181 16.5t181 57.5l-25 -199q-163 -70 -360 -70q-102 0 -177.5 25t-121 71.5t-71.5 113t-28.5 149z M348 596h270q167 0 181 123q9 61 -29.5 99t-148.5 38q-64 0 -112 -19t-79 -56.5t-50 -81t-32 -103.5zM350 1536h248l121 -358h-115z" />
<glyph unicode="&#xe9;" horiz-adv-x="1110" d="M115.5 331.5q-2.5 82.5 7.5 180.5q15 126 50 221.5t95.5 168.5t155 111t221.5 38q204 0 295.5 -92t71.5 -238q-30 -307 -426 -307h-258q0 -116 47 -181t162 -65q99 0 181 16.5t181 57.5l-25 -199q-163 -70 -360 -70q-102 0 -177.5 25t-121 71.5t-71.5 113t-28.5 149z M348 596h270q167 0 181 123q9 61 -29.5 99t-148.5 38q-64 0 -112 -19t-79 -56.5t-50 -81t-32 -103.5zM604 1178l207 358h248l-340 -358h-115z" />
<glyph unicode="&#xea;" horiz-adv-x="1110" d="M115.5 331.5q-2.5 82.5 7.5 180.5q15 126 50 221.5t95.5 168.5t155 111t221.5 38q204 0 295.5 -92t71.5 -238q-30 -307 -426 -307h-258q0 -116 47 -181t162 -65q99 0 181 16.5t181 57.5l-25 -199q-163 -70 -360 -70q-102 0 -177.5 25t-121 71.5t-71.5 113t-28.5 149z M297 1178l299 358h217l213 -358h-115l-225 215l-274 -215h-115zM348 596h270q167 0 181 123q9 61 -29.5 99t-148.5 38q-64 0 -112 -19t-79 -56.5t-50 -81t-32 -103.5z" />
<glyph unicode="&#xeb;" horiz-adv-x="1110" d="M115.5 331.5q-2.5 82.5 7.5 180.5q15 126 50 221.5t95.5 168.5t155 111t221.5 38q204 0 295.5 -92t71.5 -238q-30 -307 -426 -307h-258q0 -116 47 -181t162 -65q99 0 181 16.5t181 57.5l-25 -199q-163 -70 -360 -70q-102 0 -177.5 25t-121 71.5t-71.5 113t-28.5 149z M315 1366q8 60 54 101.5t106 41.5t97 -41.5t30 -101.5t-54.5 -101.5t-107.5 -41.5t-96.5 41.5t-28.5 101.5zM348 596h270q167 0 181 123q9 61 -29.5 99t-148.5 38q-64 0 -112 -19t-79 -56.5t-50 -81t-32 -103.5zM766 1366q8 60 54 101.5t106 41.5t97 -41.5t30 -101.5 t-54.5 -101.5t-107.5 -41.5t-96.5 41.5t-28.5 101.5z" />
<glyph unicode="&#xec;" horiz-adv-x="563" d="M41 1536h248l121 -358h-115zM131 221l96 803h207l-98 -809q-3 -27 13 -37t61 -10l-23 -195h-39q-125 0 -179.5 57.5t-37.5 190.5z" />
<glyph unicode="&#xed;" horiz-adv-x="563" d="M131 221l96 803h207l-98 -809q-3 -27 13 -37t61 -10l-23 -195h-39q-125 0 -179.5 57.5t-37.5 190.5zM295 1178l207 358h248l-340 -358h-115z" />
<glyph unicode="&#xee;" horiz-adv-x="563" d="M-12 1178l299 358h217l213 -358h-115l-225 215l-275 -215h-114zM131 221l96 803h207l-98 -809q-3 -27 13 -37t61 -10l-23 -195h-39q-125 0 -179.5 57.5t-37.5 190.5z" />
<glyph unicode="&#xef;" horiz-adv-x="563" d="M6 1366q8 60 54 101.5t106 41.5t97 -41.5t30 -101.5t-54.5 -101.5t-107.5 -41.5t-96.5 41.5t-28.5 101.5zM131 221l96 803h207l-98 -809q-3 -27 13 -37t61 -10l-23 -195h-39q-125 0 -179.5 57.5t-37.5 190.5zM457 1366q8 60 53.5 101.5t105.5 41.5t97 -41.5t30 -101.5 t-54 -101.5t-107 -41.5t-96.5 41.5t-28.5 101.5z" />
<glyph unicode="&#xf0;" horiz-adv-x="1114" d="M102 333.5q1 82.5 11 178.5q13 102 32.5 179t57.5 147.5t92.5 115.5t137 71t190.5 26q59 0 114 -19q-36 94 -96 176l-309 -147l20 172l191 90q-108 106 -283 213h318q97 -67 151 -123l256 123l-22 -172l-136 -66q225 -302 177 -757q0 -14 -3 -29q-13 -103 -32 -179.5 t-56.5 -147.5t-91.5 -115t-137 -70.5t-192 -26.5q-108 0 -184.5 25.5t-119.5 72.5t-65 113.5t-21 149zM312 359q1 -39 7.5 -65t21 -51.5t37 -40.5t57.5 -24.5t81 -9.5q63 0 109.5 18t74.5 46t47.5 75.5t28.5 92.5t17 112q12 73 10.5 136t-17 109t-62 72.5t-124.5 26.5 q-46 0 -83 -9.5t-63.5 -24t-47 -41t-33.5 -52t-23.5 -64.5t-16 -72t-11.5 -81t-8.5 -81t-1.5 -72z" />
<glyph unicode="&#xf1;" horiz-adv-x="1101" d="M82 0l125 1024h141l12 -57q141 84 297 84q186 0 271.5 -86t66.5 -244l-88 -721h-211l88 725q9 68 -32 99.5t-117 31.5q-141 0 -244 -49l-98 -807h-211zM266 1231q22 146 92.5 215t198.5 67q47 -1 83 -15t58 -32.5t40.5 -37t41 -31.5t49.5 -13q29 0 49.5 9.5t31 28 t15.5 35t9 40.5l162 -14q-37 -287 -289 -281q-47 1 -83 14t-58.5 31.5t-41 37t-41 31.5t-48.5 13q-29 0 -49.5 -9t-31.5 -27t-16 -34.5t-10 -41.5z" />
<glyph unicode="&#xf2;" horiz-adv-x="1134" d="M112 333.5q1 82.5 11 178.5q13 102 32.5 179t57.5 147.5t92.5 115.5t137 71t190.5 26q109 0 186 -25.5t119.5 -72.5t64.5 -113.5t20.5 -149t-11.5 -178.5q-13 -103 -32.5 -179.5t-56.5 -147.5t-91.5 -115t-137.5 -70.5t-192 -26.5q-108 0 -184.5 25.5t-119.5 72.5 t-65 113.5t-21 149zM320.5 359q0.5 -39 7.5 -65t21 -51.5t36.5 -40.5t57.5 -24.5t81 -9.5q63 0 109.5 18t74.5 46t48 76t29 92.5t18 111.5q12 73 10 136t-17.5 109t-62.5 72.5t-125 26.5q-54 0 -95 -11t-69 -35.5t-46.5 -51.5t-31.5 -71t-20 -81t-14 -94q-6 -48 -9 -81 t-2.5 -72zM338 1536h248l121 -358h-115z" />
<glyph unicode="&#xf3;" horiz-adv-x="1134" d="M112 333.5q1 82.5 11 178.5q13 102 32.5 179t57.5 147.5t92.5 115.5t137 71t190.5 26q109 0 186 -25.5t119.5 -72.5t64.5 -113.5t20.5 -149t-11.5 -178.5q-13 -103 -32.5 -179.5t-56.5 -147.5t-91.5 -115t-137.5 -70.5t-192 -26.5q-108 0 -184.5 25.5t-119.5 72.5 t-65 113.5t-21 149zM320.5 359q0.5 -39 7.5 -65t21 -51.5t36.5 -40.5t57.5 -24.5t81 -9.5q63 0 109.5 18t74.5 46t48 76t29 92.5t18 111.5q12 73 10 136t-17.5 109t-62.5 72.5t-125 26.5q-54 0 -95 -11t-69 -35.5t-46.5 -51.5t-31.5 -71t-20 -81t-14 -94q-6 -48 -9 -81 t-2.5 -72zM592 1178l207 358h248l-340 -358h-115z" />
<glyph unicode="&#xf4;" horiz-adv-x="1134" d="M112 333.5q1 82.5 11 178.5q13 102 32.5 179t57.5 147.5t92.5 115.5t137 71t190.5 26q109 0 186 -25.5t119.5 -72.5t64.5 -113.5t20.5 -149t-11.5 -178.5q-13 -103 -32.5 -179.5t-56.5 -147.5t-91.5 -115t-137.5 -70.5t-192 -26.5q-108 0 -184.5 25.5t-119.5 72.5 t-65 113.5t-21 149zM285 1178l299 358h217l213 -358h-115l-225 215l-275 -215h-114zM320.5 359q0.5 -39 7.5 -65t21 -51.5t36.5 -40.5t57.5 -24.5t81 -9.5q63 0 109.5 18t74.5 46t48 76t29 92.5t18 111.5q12 73 10 136t-17.5 109t-62.5 72.5t-125 26.5q-54 0 -95 -11 t-69 -35.5t-46.5 -51.5t-31.5 -71t-20 -81t-14 -94q-6 -48 -9 -81t-2.5 -72z" />
<glyph unicode="&#xf5;" horiz-adv-x="1134" d="M112 333.5q1 82.5 11 178.5q13 102 32.5 179t57.5 147.5t92.5 115.5t137 71t190.5 26q109 0 186 -25.5t119.5 -72.5t64.5 -113.5t20.5 -149t-11.5 -178.5q-13 -103 -32.5 -179.5t-56.5 -147.5t-91.5 -115t-137.5 -70.5t-192 -26.5q-108 0 -184.5 25.5t-119.5 72.5 t-65 113.5t-21 149zM256 1231q22 146 92.5 215t198.5 67q47 -1 83 -15t58 -32.5t40.5 -37t41 -31.5t49.5 -13q29 0 49.5 9.5t31 28t15.5 35t9 40.5l161 -14q-37 -287 -288 -281q-57 1 -100 21t-64 43.5t-49.5 43t-59.5 19.5q-29 0 -49 -9t-31 -27.5t-16 -34t-10 -41.5z M322 359q1 -39 7.5 -65t21 -51.5t37 -40.5t57.5 -24.5t81 -9.5q63 0 109.5 18t74.5 46t47.5 75.5t28.5 92.5t17 112q12 73 10.5 136t-17 109t-62 72.5t-124.5 26.5q-46 0 -83 -9.5t-63.5 -24t-47 -41t-33.5 -52t-23.5 -64.5t-16 -72t-11.5 -81t-8.5 -81t-1.5 -72z" />
<glyph unicode="&#xf6;" horiz-adv-x="1134" d="M112 333.5q1 82.5 11 178.5q13 102 32.5 179t57.5 147.5t92.5 115.5t137 71t190.5 26q109 0 186 -25.5t119.5 -72.5t64.5 -113.5t20.5 -149t-11.5 -178.5q-13 -103 -32.5 -179.5t-56.5 -147.5t-91.5 -115t-137.5 -70.5t-192 -26.5q-108 0 -184.5 25.5t-119.5 72.5 t-65 113.5t-21 149zM303 1366q8 60 54 101.5t106 41.5t97 -41.5t30 -101.5t-54.5 -101.5t-107.5 -41.5t-96.5 41.5t-28.5 101.5zM320.5 359q0.5 -39 7.5 -65t21 -51.5t36.5 -40.5t57.5 -24.5t81 -9.5q63 0 109.5 18t74.5 46t48 76t29 92.5t18 111.5q12 73 10 136t-17.5 109 t-62.5 72.5t-125 26.5q-54 0 -95 -11t-69 -35.5t-46.5 -51.5t-31.5 -71t-20 -81t-14 -94q-6 -48 -9 -81t-2.5 -72zM754 1366q8 60 53.5 101.5t105.5 41.5t97 -41.5t30 -101.5t-54 -101.5t-107 -41.5t-96.5 41.5t-28.5 101.5z" />
<glyph unicode="&#xf7;" horiz-adv-x="1064" d="M133 598l25 201h819l-25 -201h-819zM373 385q7 60 54.5 101.5t107.5 41.5t96 -41.5t28 -101.5q-6 -60 -52.5 -101.5t-106.5 -41.5t-96.5 41.5t-30.5 101.5zM451 1012q6 60 52.5 101.5t106.5 41.5t96.5 -41.5t30.5 -101.5q-7 -60 -54.5 -102t-107.5 -42t-96 42t-28 102z " />
<glyph unicode="&#xf8;" horiz-adv-x="1146" d="M31 0l116 143q-54 123 -24 369q13 102 32.5 179t57.5 147.5t92.5 115.5t137 71t190.5 26q138 0 225 -41l10 14h248l-127 -154q50 -118 23 -358q-13 -103 -32.5 -179.5t-56.5 -147.5t-91.5 -115t-137.5 -70.5t-192 -26.5q-133 0 -217 37l-6 -10h-248zM322 354l393 484 q-49 18 -107 18q-54 0 -95 -11t-69 -35.5t-46.5 -51.5t-31.5 -71t-20 -81t-14 -94q-13 -123 -10 -158zM426 182q38 -14 98 -14q63 0 109.5 18t74.5 46t48 76t29 92.5t18 111.5q11 86 8 141z" />
<glyph unicode="&#xf9;" horiz-adv-x="1101" d="M109 303l86 721h211l-89 -725q-7 -68 33.5 -99.5t116.5 -31.5q141 0 244 49l98 807h211l-123 -1024h-141l-15 57q-137 -84 -297 -84q-186 0 -271 86t-64 244zM317 1536h248l121 -358h-115z" />
<glyph unicode="&#xfa;" horiz-adv-x="1101" d="M109 303l86 721h211l-89 -725q-7 -68 33.5 -99.5t116.5 -31.5q141 0 244 49l98 807h211l-123 -1024h-141l-15 57q-137 -84 -297 -84q-186 0 -271 86t-64 244zM571 1178l207 358h248l-340 -358h-115z" />
<glyph unicode="&#xfb;" horiz-adv-x="1101" d="M109 303l86 721h211l-89 -725q-7 -68 33.5 -99.5t116.5 -31.5q141 0 244 49l98 807h211l-123 -1024h-141l-15 57q-137 -84 -297 -84q-186 0 -271 86t-64 244zM264 1178l299 358h217l213 -358h-114l-226 215l-274 -215h-115z" />
<glyph unicode="&#xfc;" horiz-adv-x="1101" d="M109 303l86 721h211l-89 -725q-7 -68 33.5 -99.5t116.5 -31.5q141 0 244 49l98 807h211l-123 -1024h-141l-15 57q-137 -84 -297 -84q-186 0 -271 86t-64 244zM283 1366q8 60 53.5 101.5t105.5 41.5t97 -41.5t30 -101.5t-54 -101.5t-107 -41.5t-96.5 41.5t-28.5 101.5z M733 1366q8 60 54 101.5t106 41.5t97 -41.5t30 -101.5t-54.5 -101.5t-107.5 -41.5t-96.5 41.5t-28.5 101.5z" />
<glyph unicode="&#xfd;" horiz-adv-x="1101" d="M14 -465l27 223q68 -41 177 -71t208 -27q46 1 82.5 11t60.5 23.5t43 37.5t29 42.5t18 51t10.5 50.5t6.5 52l12 101q-118 -56 -244 -56q-186 0 -271 86t-64 244l86 721h211l-89 -725q-7 -68 33.5 -99.5t116.5 -31.5q141 0 244 49l98 807h211l-133 -1096 q-7 -60 -16.5 -107.5t-27.5 -97.5t-42 -87.5t-60.5 -71.5t-83.5 -56t-112 -34.5t-144 -12.5q-254 0 -387 74zM571 1178l207 358h248l-340 -358h-115z" />
<glyph unicode="&#xfe;" horiz-adv-x="1148" d="M18 -512l250 2048h207l-67 -545q133 60 239 60q127 0 211 -39t123 -110t51 -170t-6 -220q-15 -127 -48 -221.5t-91.5 -168.5t-151 -111.5t-219.5 -37.5q-107 0 -225 56l-66 -541h-207zM313 215q33 -16 74 -27q78 -20 152 -20q58 0 103 18.5t73.5 48.5t49 76.5t30.5 92.5 t18 108q12 69 8.5 131.5t-19.5 109.5t-61.5 75t-117.5 28q-133 0 -236 -49z" />
<glyph unicode="&#xff;" horiz-adv-x="1101" d="M14 -465l27 223q68 -41 177 -71t208 -27q46 1 82.5 11t60.5 23.5t43 37.5t29 42.5t18 51t10.5 50.5t6.5 52l12 101q-118 -56 -244 -56q-186 0 -271 86t-64 244l86 721h211l-89 -725q-7 -68 33.5 -99.5t116.5 -31.5q141 0 244 49l98 807h211l-133 -1096 q-7 -60 -16.5 -107.5t-27.5 -97.5t-42 -87.5t-60.5 -71.5t-83.5 -56t-112 -34.5t-144 -12.5q-254 0 -387 74zM283 1366q8 60 53.5 101.5t105.5 41.5t97 -41.5t30 -101.5t-54 -101.5t-107 -41.5t-96.5 41.5t-28.5 101.5zM733 1366q8 60 54 101.5t106 41.5t97 -41.5t30 -101.5 t-54.5 -101.5t-107.5 -41.5t-96.5 41.5t-28.5 101.5z" />
<glyph unicode="&#x152;" horiz-adv-x="1900" d="M161.5 559.5q-3.5 99.5 12.5 208.5q17 137 49.5 248t91 210t140 166t200 105.5t267.5 38.5h960l-24 -205h-627l-53 -434h559l-25 -205h-559l-59 -487h626l-24 -205h-961q-125 0 -222 26.5t-161 75.5t-107.5 118.5t-61.5 154.5t-21.5 184.5zM394.5 541.5 q11.5 -103.5 48 -178t115 -116.5t194.5 -42h127l137 1126h-127q-116 0 -204 -41t-144.5 -118.5t-90 -176t-49.5 -227.5q-18 -123 -6.5 -226.5z" />
<glyph unicode="&#x153;" horiz-adv-x="1789" d="M112 333.5q1 82.5 11 178.5q13 102 32.5 179t57.5 147.5t92.5 115.5t137 71t190.5 26q243 0 332 -131q128 131 360 131q204 0 295.5 -92t71.5 -238q-30 -307 -426 -307h-258q0 -116 47 -181t162 -65q99 0 181 16.5t181 57.5l-25 -199q-163 -70 -360 -70q-232 0 -328 129 q-123 -129 -364 -129q-108 0 -184.5 25.5t-119.5 72.5t-65 113.5t-21 149zM320.5 359q0.5 -39 7.5 -65t21 -51.5t36.5 -40.5t57.5 -24.5t81 -9.5q60 0 105 16.5t73.5 43t49 69.5t31 86t18.5 104l4 48q10 69 6.5 128t-20.5 101.5t-63 67t-120 24.5q-54 0 -95 -11t-69 -35.5 t-46.5 -51.5t-31.5 -71t-20 -81t-14 -94q-6 -48 -9 -81t-2.5 -72zM1028 596h270q167 0 181 123q9 61 -30 99t-149 38q-122 0 -183 -67.5t-89 -192.5z" />
<glyph unicode="&#x178;" horiz-adv-x="1486" d="M207 1536h258l315 -717l492 717h258l-666 -903l-76 -633h-213l76 633zM541 1878q7 60 54 101.5t107 41.5t96.5 -41.5t28.5 -101.5q-6 -60 -52.5 -101.5t-106.5 -41.5t-96.5 41.5t-30.5 101.5zM991 1878q7 60 54.5 101.5t107.5 41.5t96.5 -41.5t28.5 -101.5 q-6 -60 -53 -101.5t-107 -41.5t-96.5 41.5t-30.5 101.5z" />
<glyph unicode="&#x2c6;" horiz-adv-x="1105" d="M291 1178l299 358h217l213 -358h-115l-225 215l-274 -215h-115z" />
<glyph unicode="&#x2dc;" horiz-adv-x="1105" d="M262 1231q22 146 92.5 215t198.5 67q47 -1 83 -15t58 -32.5t40.5 -37t41 -31.5t49.5 -13q29 0 49.5 9.5t31 28t15.5 35t9 40.5l162 -14q-37 -287 -289 -281q-57 1 -100 21t-64 43.5t-49.5 43t-59.5 19.5q-29 0 -49 -9t-31 -27.5t-16 -34t-10 -41.5z" />
<glyph unicode="&#x2000;" horiz-adv-x="1037" />
<glyph unicode="&#x2001;" horiz-adv-x="2075" />
<glyph unicode="&#x2002;" horiz-adv-x="1037" />
<glyph unicode="&#x2003;" horiz-adv-x="2075" />
<glyph unicode="&#x2004;" horiz-adv-x="691" />
<glyph unicode="&#x2005;" horiz-adv-x="518" />
<glyph unicode="&#x2006;" horiz-adv-x="345" />
<glyph unicode="&#x2007;" horiz-adv-x="345" />
<glyph unicode="&#x2008;" horiz-adv-x="259" />
<glyph unicode="&#x2009;" horiz-adv-x="415" />
<glyph unicode="&#x200a;" horiz-adv-x="115" />
<glyph unicode="&#x2010;" horiz-adv-x="757" d="M113 598l24 201h553l-24 -201h-553z" />
<glyph unicode="&#x2011;" horiz-adv-x="757" d="M113 598l24 201h553l-24 -201h-553z" />
<glyph unicode="&#x2012;" horiz-adv-x="757" d="M113 598l24 201h553l-24 -201h-553z" />
<glyph unicode="&#x2013;" horiz-adv-x="1024" d="M133 598l25 201h778l-25 -201h-778z" />
<glyph unicode="&#x2014;" horiz-adv-x="2048" d="M133 598l25 201h1802l-25 -201h-1802z" />
<glyph unicode="&#x2018;" horiz-adv-x="389" d="M57 1024q13 89 46.5 174.5t72 143.5t75.5 104t61 68l24 22h100q-5 -8 -13.5 -24t-30 -68t-37.5 -107.5t-29.5 -141t-12.5 -171.5h-256z" />
<glyph unicode="&#x2019;" horiz-adv-x="389" d="M139 1024q5 8 13.5 24t30.5 68t38 107.5t29 141t12 171.5h256q-13 -89 -46.5 -174.5t-72 -143.5t-75 -104t-60.5 -68l-24 -22h-101z" />
<glyph unicode="&#x201a;" horiz-adv-x="389" d="M-25 -328q5 8 13.5 24t30 68t37.5 107.5t28.5 141t11.5 171.5h256q-13 -89 -46 -174.5t-71 -143.5t-74.5 -104t-60.5 -68l-24 -22h-101z" />
<glyph unicode="&#x201c;" horiz-adv-x="757" d="M57 1024q13 89 46.5 174.5t72 143.5t75.5 104t61 68l24 22h100q-5 -8 -13.5 -24t-30 -68t-37.5 -107.5t-29.5 -141t-12.5 -171.5h-256zM426 1024q13 89 46.5 174.5t72 143.5t75.5 104t61 68l24 22h100q-5 -8 -13.5 -24t-30 -68t-37.5 -107.5t-29.5 -141t-12.5 -171.5 h-256z" />
<glyph unicode="&#x201d;" horiz-adv-x="757" d="M139 1024q5 8 13.5 24t30.5 68t38 107.5t29 141t12 171.5h256q-13 -89 -46.5 -174.5t-72 -143.5t-75 -104t-60.5 -68l-24 -22h-101zM508 1024q5 8 13.5 24t30.5 68t38 107.5t29 141t12 171.5h256q-13 -89 -46.5 -174.5t-72 -143.5t-75.5 -104t-61 -68l-24 -22h-100z" />
<glyph unicode="&#x201e;" horiz-adv-x="757" d="M-25 -328q5 8 13.5 24t30 68t37.5 107.5t28.5 141t11.5 171.5h256q-13 -89 -46 -174.5t-71 -143.5t-74.5 -104t-60.5 -68l-24 -22h-101zM344 -328q5 8 13.5 24t30 68t37.5 107.5t28.5 141t11.5 171.5h256q-13 -89 -46 -174.5t-71.5 -143.5t-75 -104t-60.5 -68l-24 -22 h-100z" />
<glyph unicode="&#x2022;" horiz-adv-x="819" d="M164 768q13 115 104 195.5t207 80.5q115 0 185.5 -80t56.5 -196q-13 -115 -103 -195.5t-206 -80.5t-186.5 80.5t-57.5 195.5z" />
<glyph unicode="&#x2026;" horiz-adv-x="2027" d="M145 117q7 60 54.5 101.5t107.5 41.5t96.5 -41.5t28.5 -101.5q-6 -60 -53 -102t-107 -42t-96.5 42t-30.5 102zM821 117q7 60 54.5 101.5t107.5 41.5t96.5 -41.5t28.5 -101.5q-6 -60 -53 -102t-107 -42t-96.5 42t-30.5 102zM1497 117q7 60 54.5 101.5t107.5 41.5 t96.5 -41.5t28.5 -101.5q-6 -60 -53 -102t-107 -42t-96.5 42t-30.5 102z" />
<glyph unicode="&#x202f;" horiz-adv-x="415" />
<glyph unicode="&#x2039;" horiz-adv-x="624" d="M100 418l25 188l424 287l-23 -178l-243 -203l194 -203l-22 -180z" />
<glyph unicode="&#x203a;" horiz-adv-x="624" d="M76 129l22 180l244 203l-195 203l23 178l354 -287l-24 -188z" />
<glyph unicode="&#x205f;" horiz-adv-x="518" />
<glyph unicode="&#x20ac;" horiz-adv-x="1118" d="M72 512l24 203h113l12 106h-112l24 203h125q31 136 77.5 233.5t118 167.5t173.5 104t237 34q192 0 316 -56l-25 -198q-154 53 -313 53q-148 0 -233.5 -83t-131.5 -255h533l-92 -203h-480l-12 -106h444l-92 -203h-362q3 -174 67.5 -256t212.5 -82q161 0 328 53l-25 -198 q-138 -56 -327 -56q-265 0 -372.5 132t-102.5 407h-125z" />
<glyph unicode="&#x2122;" horiz-adv-x="1177" d="M164 1442l12 94h420l-12 -94h-156l-51 -418h-107l52 418h-158zM596 1024l63 512h113l113 -319l194 319h111l-64 -512h-98l45 324l-164 -263h-78l-98 263l-37 -324h-100z" />
<glyph unicode="&#x25fc;" horiz-adv-x="1024" d="M0 0v1024h1024v-1024h-1024z" />
</font>
</defs>
</svg>
